<svg width="100px" height="60px" xmlns="http://www.w3.org/2000/svg" xmlns:xlink="http://www.w3.org/1999/xlink" viewBox="0 0 123 29" version="1.1">
    <!-- Generator: Sketch 53.2 (72643) - https://sketchadegsfegaesgzrharhyrh\pp.com -->
    
    
    <defs>
        <polygon id="path-1" points="0 28.8140748 122.732737 28.8140748 122.732737 -1.77635684e-14 0 -1.77635684e-14"/>
    <style xmlns="">.picker_wrapper.no_alpha .picker_alpha{display:none}.picker_wrapper.no_editor .picker_editor{position:absolute;z-index:-1;opacity:0}.picker_wrapper.no_cancel .picker_cancel{display:none}.layout_default.picker_wrapper{display:flex;flex-flow:row wrap;justify-content:space-between;align-items:stretch;font-size:10px;width:25em;padding:.5em}.layout_default.picker_wrapper input,.layout_default.picker_wrapper button{font-size:1rem}.layout_default.picker_wrapper&gt;*{margin:.5em}.layout_default.picker_wrapper::before{content:"";display:block;width:100%;height:0;order:1}.layout_default .picker_slider,.layout_default .picker_selector{padding:1em}.layout_default .picker_hue{width:100%}.layout_default .picker_sl{flex:1 1 auto}.layout_default .picker_sl::before{content:"";display:block;padding-bottom:100%}.layout_default .picker_editor{order:1;width:6.5rem}.layout_default .picker_editor input{width:100%;height:100%}.layout_default .picker_sample{order:1;flex:1 1 auto}.layout_default .picker_done,.layout_default .picker_cancel{order:1}.picker_wrapper{box-sizing:border-box;background:#f2f2f2;box-shadow:0 0 0 1px silver;cursor:default;font-family:sans-serif;color:#444;pointer-events:auto}.picker_wrapper:focus{outline:none}.picker_wrapper button,.picker_wrapper input{box-sizing:border-box;border:none;box-shadow:0 0 0 1px silver;outline:none}.picker_wrapper button:focus,.picker_wrapper button:active,.picker_wrapper input:focus,.picker_wrapper input:active{box-shadow:0 0 2px 1px #1e90ff}.picker_wrapper button{padding:.4em .6em;cursor:pointer;background-color:#f5f5f5;background-image:linear-gradient(0deg, gainsboro, transparent)}.picker_wrapper button:active{background-image:linear-gradient(0deg, transparent, gainsboro)}.picker_wrapper button:hover{background-color:#fff}.picker_selector{position:absolute;z-index:1;display:block;-webkit-transform:translate(-50%, -50%);transform:translate(-50%, -50%);border:2px solid #fff;border-radius:100%;box-shadow:0 0 3px 1px #67b9ff;background:currentColor;cursor:pointer}.picker_slider .picker_selector{border-radius:2px}.picker_hue{position:relative;background-image:linear-gradient(90deg, red, yellow, lime, cyan, blue, magenta, red);box-shadow:0 0 0 1px silver}.picker_sl{position:relative;box-shadow:0 0 0 1px silver;background-image:linear-gradient(180deg, white, rgba(255, 255, 255, 0) 50%),linear-gradient(0deg, black, rgba(0, 0, 0, 0) 50%),linear-gradient(90deg, #808080, rgba(128, 128, 128, 0))}.picker_alpha,.picker_sample{position:relative;background:linear-gradient(45deg, lightgrey 25%, transparent 25%, transparent 75%, lightgrey 75%) 0 0/2em 2em,linear-gradient(45deg, lightgrey 25%, white 25%, white 75%, lightgrey 75%) 1em 1em/2em 2em;box-shadow:0 0 0 1px silver}.picker_alpha .picker_selector,.picker_sample .picker_selector{background:none}.picker_editor input{font-family:monospace;padding:.2em .4em}.picker_sample::before{content:"";position:absolute;display:block;width:100%;height:100%;background:currentColor}.picker_arrow{position:absolute;z-index:-1}.picker_wrapper.popup{position:absolute;z-index:2;margin:1.5em}.picker_wrapper.popup,.picker_wrapper.popup .picker_arrow::before,.picker_wrapper.popup .picker_arrow::after{background:#f2f2f2;box-shadow:0 0 10px 1px rgba(0,0,0,.4)}.picker_wrapper.popup .picker_arrow{width:3em;height:3em;margin:0}.picker_wrapper.popup .picker_arrow::before,.picker_wrapper.popup .picker_arrow::after{content:"";display:block;position:absolute;top:0;left:0;z-index:-99}.picker_wrapper.popup .picker_arrow::before{width:100%;height:100%;-webkit-transform:skew(45deg);transform:skew(45deg);-webkit-transform-origin:0 100%;transform-origin:0 100%}.picker_wrapper.popup .picker_arrow::after{width:150%;height:150%;box-shadow:none}.popup.popup_top{bottom:100%;left:0}.popup.popup_top .picker_arrow{bottom:0;left:0;-webkit-transform:rotate(-90deg);transform:rotate(-90deg)}.popup.popup_bottom{top:100%;left:0}.popup.popup_bottom .picker_arrow{top:0;left:0;-webkit-transform:rotate(90deg) scale(1, -1);transform:rotate(90deg) scale(1, -1)}.popup.popup_left{top:0;right:100%}.popup.popup_left .picker_arrow{top:0;right:0;-webkit-transform:scale(-1, 1);transform:scale(-1, 1)}.popup.popup_right{top:0;left:100%}.popup.popup_right .picker_arrow{top:0;left:0}</style></defs>
    <g id="Guides-Alfa" stroke="none" stroke-width="1" fill="none" fill-rule="evenodd">
        <g id="guide_board_basic_web" transform="translate(-169.000000, -223.000000)">
            <g id="logo_new" transform="translate(42.000000, 223.000000)">
                <g id="Group-16" transform="translate(127.000000, -0.000000)">
                    <path d="M17.0905405,26.0249252 C14.3024508,26.0249252 11.6091007,25.0066729 9.50787309,23.1579907 L9.07050985,22.7734019 L4.57818381,23.112729 L6.50850328,19.0754953 L6.29829978,18.5163645 C5.80414661,17.2007944 5.55384026,15.8185514 5.55384026,14.4073084 C5.55384026,13.0616542 5.79230416,11.7241308 6.24312473,10.4643925 L17.0905405,18.5513271 L27.9376871,10.4643925 C28.3885077,11.7241308 28.627779,13.0621963 28.627779,14.4073084 C28.627779,20.8130561 23.4520897,26.0249252 17.0905405,26.0249252 M17.0905405,2.78969159 C20.9678665,2.78969159 24.5354048,4.73946729 26.6667768,7.94057944 L17.0905405,15.080271 L7.51403501,7.94057944 C9.645407,4.73946729 13.2134836,2.78969159 17.0905405,2.78969159 M29.7277812,7.65139252 C27.2349453,2.93171028 22.3921904,-3.55271368e-15 17.0905405,-3.55271368e-15 C11.7886214,-3.55271368e-15 6.94640481,2.93171028 4.45356893,7.65139252 C3.3608337,9.71960748 2.78351422,12.0558692 2.78351422,14.4073084 C2.78351422,15.9524393 3.02574617,17.4701963 3.50428884,18.9280561 L1.24344979e-14,26.2563832 L8.13872429,25.6422336 C10.6732779,27.6917477 13.8295602,28.8140748 17.0905405,28.8140748 C24.980035,28.8140748 31.3978359,22.3514112 31.3978359,14.4073084 C31.3978359,12.0564112 30.8202473,9.72014953 29.7277812,7.65139252" id="A" fill="#FE9400"/>
                    <path d="M44.5925061,16.0847551 L39.9817556,16.0847551 L40.0215893,15.8763346 C40.1739263,15.0770729 40.4761779,14.4696991 40.9197315,14.0696617 C41.3657074,13.6674561 41.8878519,13.463372 42.470016,13.463372 C43.1794864,13.463372 43.7188562,13.6891383 44.0725149,14.1352505 C44.4175608,14.5699794 44.5925061,15.1667832 44.5925061,15.9094 L44.5925061,16.0847551 Z M42.4040751,11.4986897 C41.5648759,11.4986897 40.7625499,11.7274374 40.0199744,12.1789701 C39.2760532,12.6313159 38.6672435,13.2842224 38.2099635,14.1198019 C37.7521451,14.9578206 37.5198716,15.9446336 37.5198716,17.0553065 C37.5198716,18.181157 37.7521451,19.177185 38.2099635,20.0138486 C38.666167,20.8480729 39.2986615,21.4925776 40.0902217,21.9289327 C40.885819,22.3685402 41.7893442,22.5910542 42.7768431,22.5910542 C43.4114908,22.5910542 44.0606724,22.4864374 44.7047403,22.279372 C45.2952479,22.0910075 45.844307,21.8275682 46.3360379,21.4988112 L45.5097578,19.9639794 C43.9026834,20.8453626 42.3001845,20.8499701 41.107865,19.9761757 C40.5103595,19.5381944 40.1303245,18.8552037 39.9771801,17.9453626 L39.9427293,17.7410075 L46.7088059,17.7410075 C46.7734011,17.4206523 46.806237,17.0198019 46.806237,16.5487551 C46.806237,15.0399421 46.4218956,13.8051383 45.6629022,12.8790355 C44.9130597,11.9632318 43.8168256,11.4986897 42.4040751,11.4986897 L42.4040751,11.4986897 Z" id="Fill-3" fill="#3B2C44"/>
                    <path d="M55.6325232,20.437357 L57.2398667,20.437357 L60.7901796,11.4058897 L60.867963,11.4058897 L60.8636567,11.4603664 L60.761381,12.4582916 C60.5732475,14.2519551 60.4777004,15.5658991 60.4777004,16.3654318 L60.4777004,22.3272355 L62.9371621,22.3272355 L62.9371621,7.85325421 L59.8573175,7.85325421 L56.5451993,17.1801421 L56.4588033,17.1801421 L53.0810133,7.85325421 L50.0003613,7.85325421 L50.0003613,22.3272355 L52.4162212,22.3272355 L52.4162212,16.3654318 C52.4162212,15.5705065 52.3201359,14.2562916 52.1322716,12.4591047 L52.0254204,11.4058897 L52.103742,11.4058897 L55.6325232,20.437357 Z" id="Fill-5" fill="#3B2C44"/>
                    <path d="M84.4786608,20.4945168 C84.2786849,20.4945168 84.1018556,20.4031804 83.9508643,20.2226757 C83.8057943,20.0497598 83.7352779,19.7928252 83.7352779,19.4372364 L83.7352779,7.85891869 L81.1057155,7.85891869 L81.1057155,19.3047037 C81.1057155,20.3644234 81.3156499,21.1897037 81.7287899,21.7594047 C82.1298184,22.3114888 82.7970328,22.5909187 83.7121313,22.5909187 C84.2227024,22.5909187 84.6729847,22.5296664 85.0489825,22.4074327 L84.7300438,20.4798813 C84.6519912,20.4893673 84.5672101,20.4945168 84.4786608,20.4945168" id="Fill-7" fill="#3B2C44"/>
                    
                    <g id="Clip-10"/>
                    <polygon id="Fill-9" fill="#3B2C44" mask="url(#mask-2)" points="87.5445098 22.3267477 90.1743414 22.3267477 90.1743414 11.7631589 87.5445098 11.7631589"/>
                    <path d="M88.8591295,7.44270093 C88.4115387,7.44270093 88.043077,7.57875701 87.7650486,7.84653271 C87.4840595,8.11593458 87.3470639,8.45282243 87.3470639,8.87698131 C87.3470639,9.30168224 87.4840595,9.63911215 87.7650486,9.90770093 C88.0425387,10.1757477 88.4115387,10.3112617 88.8591295,10.3112617 C89.3131799,10.3112617 89.6716832,10.1795421 89.9540179,9.90770093 C90.2344687,9.63911215 90.3714643,9.30114019 90.3714643,8.87698131 C90.3714643,8.45336449 90.2344687,8.11593458 89.9540179,7.84653271 C89.6749129,7.57875701 89.3064512,7.44270093 88.8591295,7.44270093" id="Fill-11" fill="#3B2C44" mask="url(#mask-2)"/>
                    <path d="M99.8055643,16.0847551 L95.1948138,16.0847551 L95.2341092,15.8763346 C95.3872536,15.0770729 95.6892361,14.4696991 96.1325206,14.0696617 C96.5793039,13.6674561 97.1011792,13.463372 97.6825359,13.463372 C98.3925446,13.463372 98.9313761,13.6891383 99.2858422,14.1352505 C99.6303499,14.5699794 99.8055643,15.1667832 99.8055643,15.9094 L99.8055643,16.0847551 Z M97.6168641,11.4986897 C96.7779341,11.4986897 95.9758772,11.7274374 95.2330326,12.1789701 C94.4888422,12.6313159 93.8803018,13.2842224 93.4230217,14.1198019 C92.9654724,14.9578206 92.7334681,15.9446336 92.7334681,17.0553065 C92.7334681,18.181157 92.9654724,19.177185 93.4230217,20.0138486 C93.8792252,20.8480729 94.5114505,21.4925776 95.303549,21.9289327 C96.0988772,22.3685402 97.0021333,22.5910542 97.9896322,22.5910542 C98.6250873,22.5910542 99.2737306,22.4864374 99.9183368,22.279372 C100.508575,22.0910075 101.057365,21.8275682 101.549096,21.4988112 L100.723085,19.9639794 C99.116549,20.8453626 97.5143193,20.8505121 96.3214615,19.9761757 C95.7234177,19.5381944 95.3428444,18.8552037 95.1899691,17.9453626 L95.1555184,17.7410075 L101.922133,17.7410075 C101.986728,17.4206523 102.019564,17.0198019 102.019564,16.5487551 C102.019564,15.0399421 101.634685,13.8051383 100.87623,12.8790355 C100.125849,11.9632318 99.0296147,11.4986897 97.6168641,11.4986897 L97.6168641,11.4986897 Z" id="Fill-12" fill="#3B2C44" mask="url(#mask-2)"/>
                    <path d="M110.52885,11.4985813 C109.875631,11.4985813 109.27355,11.6438523 108.738756,11.9300579 C108.000756,12.3260299 107.439047,12.7171234 107.021869,13.1247495 L106.923362,13.2220486 L106.573202,11.7633757 L104.462823,11.7633757 L104.462823,22.3272355 L107.092386,22.3272355 L107.092386,14.9756 L107.145408,14.9235626 C107.577926,14.5034692 107.957423,14.1980206 108.274747,14.0153477 C108.606066,13.8245439 108.996598,13.7277869 109.43423,13.7277869 C110.00213,13.7277869 110.422268,13.9156093 110.682802,14.2871888 C110.931762,14.6441327 111.053686,15.2328056 111.053686,16.0857308 L111.053686,22.3272355 L113.705049,22.3272355 L113.705049,15.7114411 C113.705049,14.3451888 113.439939,13.2857402 112.916718,12.5618243 C112.407224,11.8563383 111.603552,11.4985813 110.52885,11.4985813" id="Fill-13" fill="#3B2C44" mask="url(#mask-2)"/>
                    <path d="M121.38224,20.5604308 C120.308615,20.5604308 119.763593,19.9007486 119.763593,18.599543 L119.763593,13.7942159 L122.413341,13.7942159 L122.413341,11.7634028 L119.763593,11.7634028 L119.763593,8.85283271 L117.617418,8.85283271 L117.268873,11.7514776 L117.228501,11.7547299 L115.622772,11.8821131 L115.622772,13.7942159 L117.13403,13.7942159 L117.13403,18.6214963 C117.13403,19.8820477 117.416096,20.8726551 117.970807,21.5651318 C118.516906,22.2462252 119.399437,22.5909729 120.594448,22.5909729 C121.296652,22.5909729 122.016081,22.4771411 122.732818,22.2516458 L122.326945,20.3932065 C121.975709,20.504328 121.658385,20.5604308 121.38224,20.5604308" id="Fill-14" fill="#3B2C44" mask="url(#mask-2)"/>
                    <path d="M75.0080646,20.300786 C73.7759114,20.300786 72.7851827,19.8118514 72.0638698,18.8475336 C71.3581674,17.9062533 71.0004716,16.6050477 71.0004716,14.9826738 C71.0004716,13.9440944 71.1729945,13.0198888 71.5102352,12.2352626 C71.8547429,11.4387112 72.3397451,10.8164308 72.9515153,10.3865804 C73.5689376,9.95293551 74.2754475,9.73394486 75.0535503,9.73394486 C75.6044934,9.73394486 76.1191018,9.84587944 76.5841871,10.0667673 C76.9669136,10.2505243 77.3466794,10.508272 77.712988,10.8326925 L79.054953,9.20435607 C78.5651061,8.73547757 77.9899398,8.34058972 77.3442571,8.03270187 C76.6310186,7.69093551 75.8375744,7.51801963 74.9849179,7.51801963 C73.7780646,7.51801963 72.6503403,7.82238411 71.6326969,8.42216916 C70.6174759,9.02141215 69.8000777,9.90089813 69.2039179,11.0359636 C68.6034519,12.1775336 68.2993162,13.544328 68.2993162,15.0975897 C68.2993162,16.666029 68.5961849,18.0246925 69.180233,19.1353654 C69.7613206,20.2398047 70.5585328,21.0878514 71.5506072,21.6564682 C72.5448348,22.2267112 73.6695985,22.5164402 74.8936772,22.5164402 C76.6600864,22.5164402 78.146314,21.8608234 79.3127954,20.5696458 L77.979174,18.9852159 C77.1246335,19.8581972 76.1260996,20.300786 75.0080646,20.300786" id="Fill-15" fill="#3B2C44" mask="url(#mask-2)"/>
                </g>
            </g>
        </g>
    </g>
</svg>
