<?xml version="1.0" encoding="UTF-8" standalone="no" ?>
<!DOCTYPE svg PUBLIC "-//W3C//DTD SVG 1.1//EN" "http://www.w3.org/Graphics/SVG/1.1/DTD/svg11.dtd">
<svg xmlns="http://www.w3.org/2000/svg" xmlns:xlink="http://www.w3.org/1999/xlink" version="1.1" width="100" height="60" viewBox="0 0 100 60" xml:space="preserve">
<desc>Created with Fabric.js 5.2.4</desc>
<defs>
</defs>
<g transform="matrix(0 0 0 0 0 0)" id="8123bb35-2ea2-4781-8a08-1561ca24fd41"  >
</g>
<g transform="matrix(1 0 0 1 50 30)" id="497c2732-c284-4257-a80a-6a3b2116304f"  >
<rect style="stroke: none; stroke-width: 1; stroke-dasharray: none; stroke-linecap: butt; stroke-dashoffset: 0; stroke-linejoin: miter; stroke-miterlimit: 4; fill: rgb(255,255,255); fill-rule: nonzero; opacity: 1; visibility: hidden;" vector-effect="non-scaling-stroke"  x="-50" y="-30" rx="0" ry="0" width="100" height="60" />
</g>
<g transform="matrix(0.21 0 0 0.21 50 30)"  >
<g style="" vector-effect="non-scaling-stroke"   >
		<g transform="matrix(1 0 0 1 0 0)"  >
<rect style="stroke: none; stroke-width: 1; stroke-dasharray: none; stroke-linecap: butt; stroke-dashoffset: 0; stroke-linejoin: miter; stroke-miterlimit: 4; fill: rgb(255,255,255); fill-opacity: 0; fill-rule: nonzero; opacity: 1;" vector-effect="non-scaling-stroke"  x="-50" y="-50" rx="0" ry="0" width="100" height="100" />
</g>
		<g transform="matrix(1 0 0 1 0 -20)"  >
<rect style="stroke: none; stroke-width: 1; stroke-dasharray: none; stroke-linecap: butt; stroke-dashoffset: 0; stroke-linejoin: miter; stroke-miterlimit: 4; fill: rgb(255,255,255); fill-rule: nonzero; opacity: 1; visibility: hidden;" vector-effect="non-scaling-stroke"  x="-50" y="-30" rx="0" ry="0" width="100" height="60" />
</g>
		<g transform="matrix(1 0 0 1 1.59 -19.98)"  >
<path style="stroke: none; stroke-width: 1; stroke-dasharray: none; stroke-linecap: butt; stroke-dashoffset: 0; stroke-linejoin: miter; stroke-miterlimit: 4; fill: rgb(156,70,93); fill-rule: evenodd; opacity: 1;" vector-effect="non-scaling-stroke"  transform=" translate(-201.59, -29.78)" d="M 198.836 0.329 C 198.702 0.578 198.726 0.626 198.961 0.581 C 199.12 0.55 199.298 0.52 199.357 0.513 C 199.416 0.506 199.502 0.403 199.547 0.284 C 199.679 -0.058 199.021 -0.017 198.836 0.329 M 209.353 0.111 C 209.342 0.218 209.285 0.443 209.225 0.611 C 209.142 0.848 209.164 0.874 209.324 0.726 C 209.438 0.621 209.495 0.396 209.452 0.226 C 209.408 0.056 209.363 0.004 209.353 0.111 M 218.678 0.282 C 218.672 0.483 218.742 0.693 218.833 0.75 C 219.03 0.872 219.03 0.709 218.833 0.25 C 218.695 -0.071 218.69 -0.07 218.678 0.282 M 228.619 0.284 C 228.699 0.49 228.913 0.571 229.229 0.513 C 229.309 0.498 229.323 0.621 229.261 0.785 C 229.175 1.009 229.194 1.036 229.339 0.893 C 229.48 0.753 229.482 0.612 229.348 0.362 C 229.151 -0.007 228.48 -0.078 228.619 0.284 M 260.676 0.316 C 260.468 0.704 260.898 0.723 261.243 0.341 C 261.461 0.1 261.452 0.067 261.161 0.045 C 260.981 0.032 260.763 0.154 260.676 0.316 M 325.713 0.542 C 325.433 1.053 325.417 2.313 325.414 22.75 C 325.413 37.964 325.425 39.529 325.457 28.006 C 325.496 13.525 325.53 11.636 325.746 11.944 C 325.985 12.284 326.08 12.291 329.62 12.215 C 331.617 12.172 333.906 12.203 334.708 12.285 L 336.167 12.433 L 336.205 7.091 L 336.243 1.75 L 336.337 7.333 L 336.431 12.917 L 336.424 6.909 C 336.417 1.445 336.39 0.861 336.121 0.451 L 335.826 0 L 330.917 0 L 326.009 0 L 325.713 0.542 M 392.115 0.273 C 392.161 0.392 392.285 0.473 392.391 0.453 C 392.497 0.433 392.567 0.503 392.547 0.609 C 392.527 0.716 392.639 0.781 392.797 0.756 C 392.954 0.73 393.17 0.778 393.277 0.863 C 393.612 1.129 393.654 0.758 393.336 0.337 C 393.076 -0.008 392.992 -0.035 392.766 0.154 C 392.62 0.275 392.5 0.302 392.5 0.215 C 392.5 0.127 392.395 0.056 392.266 0.056 C 392.137 0.056 392.069 0.153 392.115 0.273 M 393.266 0.539 C 393.524 0.842 393.529 0.869 393.292 0.685 C 393.131 0.561 393 0.51 393 0.573 C 393 0.635 392.924 0.639 392.831 0.582 C 392.737 0.524 392.704 0.407 392.757 0.322 C 392.889 0.109 392.905 0.116 393.266 0.539 M 163.372 1 C 163.372 1.321 163.406 1.452 163.448 1.292 C 163.49 1.131 163.49 0.869 163.448 0.708 C 163.406 0.548 163.372 0.679 163.372 1 M 5.917 1.129 C 5.825 1.197 5.563 1.477 5.333 1.75 C 4.966 2.188 4.961 2.21 5.292 1.931 C 5.498 1.757 5.667 1.679 5.667 1.758 C 5.667 1.987 6.06 1.528 6.1 1.252 C 6.143 0.964 6.141 0.962 5.917 1.129 M 198.413 16.917 C 198.413 25.35 198.433 28.824 198.458 24.638 C 198.483 20.451 198.483 13.551 198.458 9.304 C 198.434 5.058 198.413 8.483 198.413 16.917 M 260.248 23.083 C 260.248 34.908 260.267 39.77 260.292 33.888 C 260.316 28.005 260.316 18.33 260.292 12.388 C 260.267 6.445 260.248 11.258 260.248 23.083 M 394.913 2.007 C 394.842 2.121 394.967 2.14 395.278 2.062 C 395.72 1.952 395.734 1.964 395.5 2.25 C 395.264 2.538 395.273 2.543 395.667 2.336 L 396.083 2.118 L 395.763 2.478 C 395.447 2.835 395.694 3.306 396.208 3.328 C 396.475 3.339 396.316 2.983 396.002 2.867 C 395.672 2.745 395.672 2.744 396.003 2.537 C 396.185 2.423 396.316 2.392 396.292 2.467 C 396.269 2.543 396.496 2.852 396.797 3.154 C 397.229 3.588 397.304 3.752 397.152 3.935 C 397.012 4.103 397.01 4.167 397.146 4.167 C 397.249 4.167 397.333 4.104 397.333 4.028 C 397.333 3.951 397.446 3.889 397.583 3.889 C 397.845 3.889 397.923 4.089 397.708 4.209 C 397.64 4.247 397.686 4.252 397.812 4.22 C 397.972 4.179 398.012 4.269 397.946 4.522 C 397.881 4.771 397.905 4.828 398.026 4.707 C 398.314 4.42 398.02 3.862 397.111 2.973 C 396.043 1.929 395.192 1.555 394.913 2.007 M 285.576 2.178 C 285.516 2.276 285.512 2.401 285.567 2.456 C 285.622 2.511 285.667 2.468 285.667 2.361 C 285.667 2.254 285.746 2.167 285.843 2.167 C 285.94 2.167 285.976 2.238 285.922 2.325 C 285.794 2.532 286.946 3.578 287.306 3.581 C 287.466 3.582 287.574 3.705 287.56 3.873 C 287.548 4.033 287.612 4.117 287.703 4.061 C 287.807 3.997 287.824 4.1 287.75 4.333 C 287.669 4.589 287.69 4.672 287.815 4.594 C 288.186 4.365 287.979 3.957 287.002 2.989 C 285.987 1.983 285.772 1.861 285.576 2.178 M 375.017 2.816 C 373.973 3.855 373.525 4.667 373.995 4.667 C 374.084 4.667 374.108 4.542 374.05 4.389 C 373.979 4.204 374.007 4.152 374.136 4.231 C 374.267 4.312 374.294 4.257 374.22 4.065 C 374.153 3.892 374.176 3.82 374.278 3.882 C 374.447 3.987 375.798 2.727 375.694 2.561 C 375.664 2.512 375.695 2.422 375.763 2.361 C 375.831 2.3 375.842 2.329 375.788 2.425 C 375.733 2.521 375.76 2.708 375.848 2.841 C 375.962 3.015 375.985 2.95 375.929 2.61 C 375.867 2.24 375.904 2.158 376.1 2.233 C 376.242 2.288 376.306 2.258 376.249 2.165 C 376.068 1.872 375.852 1.985 375.017 2.816 M 286.667 2.917 C 286.978 3.237 287.195 3.5 287.149 3.5 C 287.103 3.5 286.811 3.237 286.5 2.917 C 286.189 2.596 285.972 2.333 286.018 2.333 C 286.064 2.333 286.356 2.596 286.667 2.917 M 375.5 2.717 C 375.5 2.745 375.219 3.026 374.875 3.342 L 374.25 3.917 L 374.824 3.292 C 375.359 2.71 375.5 2.59 375.5 2.717 M 163.375 6.75 C 163.377 7.117 163.411 7.247 163.451 7.04 C 163.491 6.832 163.49 6.532 163.448 6.373 C 163.406 6.214 163.374 6.383 163.375 6.75 M 372.008 6.945 C 371.642 7.409 371.63 7.702 371.973 7.769 C 372.084 7.791 372.098 7.77 372.004 7.724 C 371.91 7.677 371.833 7.566 371.833 7.476 C 371.833 7.387 371.92 7.367 372.026 7.433 C 372.152 7.511 372.173 7.478 372.085 7.336 C 372 7.198 372.095 7.011 372.351 6.814 C 372.57 6.645 372.662 6.506 372.554 6.504 C 372.446 6.502 372.2 6.7 372.008 6.945 M 290.388 8.417 C 290.389 9.058 290.419 9.3 290.455 8.955 C 290.491 8.609 290.49 8.084 290.454 7.788 C 290.417 7.492 290.387 7.775 290.388 8.417 M 26.988 7.794 C 27.131 8.073 27.132 8.246 26.994 8.461 C 26.821 8.729 26.814 8.73 26.897 8.464 C 26.946 8.306 26.914 8.133 26.826 8.079 C 26.693 7.997 26.622 8.335 26.681 8.773 C 26.697 8.893 26.317 9.16 26.125 9.164 C 26.056 9.166 26 9.087 26 8.99 C 26 8.893 26.075 8.86 26.167 8.917 C 26.258 8.973 26.333 8.945 26.333 8.853 C 26.333 8.761 26.258 8.64 26.167 8.583 C 26.075 8.527 26 8.564 26 8.667 C 26 8.769 25.918 8.802 25.817 8.74 C 25.697 8.666 25.704 8.758 25.836 9.005 C 26.03 9.368 26.017 9.378 25.511 9.277 C 25.182 9.211 25.022 9.233 25.085 9.336 C 25.384 9.82 26.873 9.209 27.176 8.477 C 27.355 8.046 27.343 7.94 27.089 7.697 C 26.81 7.432 26.805 7.437 26.988 7.794 M 371.519 8.125 C 371.499 8.524 371.735 8.628 371.933 8.308 C 372.003 8.193 371.979 8.16 371.872 8.226 C 371.773 8.287 371.657 8.205 371.615 8.044 C 371.557 7.82 371.534 7.84 371.519 8.125 M 162.917 8.355 C 162.984 8.532 162.864 8.749 162.571 8.98 C 162.324 9.174 162.194 9.333 162.282 9.333 C 162.648 9.333 163.236 8.503 163.021 8.289 C 162.856 8.125 162.835 8.139 162.917 8.355 M 152.29 8.542 C 152.187 8.811 152.443 9.5 152.645 9.5 C 152.731 9.5 152.943 9.726 153.118 10.001 L 153.435 10.502 L 153.915 10.001 C 154.18 9.726 154.308 9.5 154.202 9.5 C 154.095 9.5 153.769 9.237 153.477 8.917 C 152.938 8.324 152.433 8.164 152.29 8.542 M 270.278 8.444 C 270.025 8.697 270.204 9.119 270.817 9.714 L 271.468 10.345 L 271.942 9.928 C 272.203 9.698 272.318 9.508 272.198 9.505 C 272.077 9.502 272.033 9.415 272.099 9.308 C 272.166 9.199 272.146 9.16 272.051 9.218 C 271.959 9.275 271.671 9.099 271.411 8.827 C 270.959 8.355 270.516 8.206 270.278 8.444 M 371.022 9.059 C 370.519 9.595 370.34 10.335 370.452 11.421 C 370.564 12.505 370.661 12.605 371.171 12.163 C 371.38 11.982 371.64 11.833 371.75 11.833 C 372.627 11.833 372.746 10.21 371.936 9.294 L 371.386 8.672 L 371.022 9.059 M 10.78 9.52 C 10.455 9.709 10.401 11.047 10.703 11.443 C 10.79 11.559 10.779 11.681 10.675 11.745 C 10.579 11.804 10.511 12.167 10.525 12.552 L 10.55 13.25 L 10.65 12.506 C 10.741 11.831 10.8 11.752 11.286 11.653 C 11.581 11.593 12.105 11.296 12.451 10.992 C 12.947 10.557 13.001 10.461 12.706 10.538 C 12.501 10.592 12.373 10.57 12.423 10.49 C 12.734 9.986 11.367 9.178 10.78 9.52 M 277.322 9.717 C 277.737 10.252 278.094 10.354 278.125 9.948 C 278.146 9.672 278.117 9.644 278.003 9.829 C 277.876 10.033 277.795 10.02 277.471 9.743 C 277.153 9.472 277.128 9.467 277.322 9.717 M 290.541 10.025 C 290.597 10.177 290.599 10.346 290.544 10.401 C 289.997 10.948 290.464 11.902 291.029 11.391 C 291.329 11.119 291.518 11.427 291.228 11.716 C 291.09 11.854 291.153 15.1 291.301 15.502 C 291.365 15.673 291.411 14.712 291.404 13.365 C 291.392 10.9 291.302 10.454 290.728 9.986 C 290.472 9.778 290.45 9.783 290.541 10.025 M 388.667 10.339 C 388.667 10.438 388.584 10.469 388.483 10.406 C 388.195 10.228 388.577 10.867 388.973 11.225 C 389.206 11.437 389.391 11.484 389.577 11.38 C 389.805 11.253 389.756 11.15 389.256 10.695 C 388.932 10.4 388.667 10.24 388.667 10.339 M 291.126 10.871 C 291.098 10.956 291.005 11.014 290.919 11 C 290.833 10.987 290.708 11.112 290.642 11.279 C 290.547 11.516 290.556 10.902 290.655 10.355 C 290.662 10.32 290.782 10.388 290.922 10.505 C 291.063 10.621 291.155 10.786 291.126 10.871 M 382.958 10.618 C 383.165 10.657 383.502 10.657 383.708 10.618 C 383.915 10.578 383.746 10.545 383.333 10.545 C 382.921 10.545 382.752 10.578 382.958 10.618 M 381.583 11.135 C 380.206 11.251 379.91 12.227 380.982 13.117 C 381.873 13.857 382.5 13.292 382.5 11.749 C 382.5 11.089 382.458 11.061 381.583 11.135 M 370.372 28.583 C 370.373 37.475 370.43 44.525 370.5 44.25 C 370.673 43.569 370.682 13.919 370.51 13.083 C 370.433 12.714 370.372 19.63 370.372 28.583 M 381.25 15.75 C 381.25 16.878 381.306 17.767 381.375 17.724 C 381.444 17.682 381.5 16.793 381.5 15.75 C 381.5 14.707 381.444 13.818 381.375 13.776 C 381.306 13.733 381.25 14.622 381.25 15.75 M 9.98 13.925 C 9.969 14.012 9.973 14.149 9.987 14.229 C 10.002 14.309 9.882 14.534 9.722 14.729 C 9.561 14.924 9.649 14.878 9.917 14.627 C 10.299 14.27 10.361 14.128 10.202 13.969 C 10.091 13.858 9.991 13.838 9.98 13.925 M 291.094 16.048 C 291.156 16.213 291.142 16.325 291.062 16.298 C 290.982 16.272 290.911 16.287 290.903 16.333 C 290.896 16.379 290.79 16.604 290.668 16.833 C 290.462 17.219 290.466 17.233 290.732 17.014 C 291.2 16.627 291.392 16.159 291.172 15.94 C 291.028 15.797 291.008 15.824 291.094 16.048 M 279.155 16.709 C 278.665 17.137 278.152 17.789 278.444 17.614 C 278.551 17.55 278.665 17.577 278.697 17.674 C 278.729 17.77 278.979 17.611 279.253 17.319 L 279.75 16.787 L 279.292 17.08 C 279.04 17.24 278.833 17.322 278.833 17.261 C 278.833 17.2 279.04 16.969 279.292 16.747 C 279.544 16.525 279.712 16.342 279.667 16.339 C 279.621 16.337 279.39 16.503 279.155 16.709 M 381.254 18.162 C 381.09 18.343 380.816 18.536 380.645 18.59 C 380.434 18.657 380.333 18.847 380.333 19.178 C 380.333 19.862 380.967 19.849 381.543 19.154 C 381.777 18.871 382.013 18.646 382.068 18.654 C 382.461 18.705 382.461 18.614 382.068 18.25 C 381.53 17.752 381.617 17.761 381.254 18.162 M 389.908 18.243 C 389.657 18.476 389.537 18.676 389.642 18.688 C 389.747 18.699 389.919 18.718 390.024 18.729 C 390.128 18.741 390.297 18.9 390.399 19.083 C 390.647 19.532 390.846 19.661 391.292 19.664 C 391.8 19.668 391.797 19.004 391.286 18.572 C 390.346 17.776 390.399 17.789 389.908 18.243 M 77.043 19.123 C 77.027 19.284 76.965 19.66 76.905 19.958 C 76.836 20.296 76.862 20.5 76.972 20.5 C 77.068 20.5 77.119 20.352 77.084 20.17 C 77.049 19.989 77.092 19.796 77.18 19.742 C 77.267 19.688 77.288 19.562 77.227 19.463 C 77.16 19.354 77.193 19.33 77.31 19.402 C 77.418 19.469 77.455 19.604 77.394 19.704 C 77.327 19.812 77.359 19.837 77.474 19.766 C 77.58 19.701 77.667 19.726 77.667 19.823 C 77.667 19.921 77.604 20 77.528 20 C 77.451 20 77.389 20.122 77.389 20.272 C 77.389 20.508 77.419 20.503 77.611 20.24 C 77.804 19.977 77.833 19.973 77.833 20.208 C 77.833 20.358 77.765 20.522 77.682 20.574 C 77.597 20.626 77.525 23.262 77.517 26.625 C 77.507 30.393 77.559 32.488 77.658 32.324 C 77.746 32.178 77.828 29.351 77.846 25.85 L 77.877 19.635 L 77.474 19.232 C 77.123 18.881 77.068 18.867 77.043 19.123 M 20.724 21.917 C 20.724 22.65 20.754 22.929 20.789 22.537 C 20.824 22.145 20.824 21.545 20.788 21.204 C 20.752 20.863 20.723 21.183 20.724 21.917 M 77 21 C 77.19 21.354 77.5 21.452 77.5 21.157 C 77.5 21.06 77.425 21.027 77.333 21.083 C 77.242 21.14 77.167 21.069 77.167 20.927 C 77.167 20.784 77.089 20.667 76.994 20.667 C 76.877 20.667 76.879 20.774 77 21 M 76.939 22.94 C 76.77 24.172 76.82 31.055 77 31.333 C 77.106 31.498 77.162 29.976 77.164 26.875 C 77.167 22.125 77.133 21.529 76.939 22.94 M 19.082 25.503 C 19.024 25.596 18.888 25.621 18.78 25.559 C 18.672 25.497 18.639 25.508 18.707 25.583 C 18.775 25.658 18.74 25.839 18.629 25.985 C 18.518 26.131 18.631 26.068 18.88 25.846 C 19.129 25.624 19.333 25.417 19.333 25.388 C 19.333 25.272 19.181 25.341 19.082 25.503 M 272.181 29.27 C 272.402 29.556 272.617 29.76 272.658 29.723 C 272.699 29.686 272.518 29.453 272.255 29.203 L 271.779 28.75 L 272.181 29.27 M 381.41 36.667 C 381.41 41.021 381.432 42.802 381.458 40.625 C 381.485 38.448 381.485 34.885 381.458 32.708 C 381.432 30.531 381.41 32.313 381.41 36.667 M 390.58 42.833 C 390.58 50.579 390.6 53.748 390.625 49.875 C 390.65 46.002 390.65 39.665 390.625 35.792 C 390.6 31.919 390.58 35.087 390.58 42.833 M 272.95 31.111 C 273.123 31.562 273.623 31.695 273.602 31.285 C 273.589 31.03 273.472 30.911 273.223 30.898 C 272.979 30.886 272.891 30.955 272.95 31.111 M 86.598 31.679 C 85.86 32.557 86.078 33.262 86.876 32.576 C 87.306 32.206 87.512 31.87 87.184 32.073 C 87.004 32.184 86.854 31.833 86.955 31.541 C 86.996 31.425 87.109 31.381 87.207 31.441 C 87.312 31.506 87.336 31.473 87.266 31.359 C 87.102 31.093 87.085 31.101 86.598 31.679 M 86.769 32.195 C 86.748 32.586 86.333 32.843 86.333 32.464 C 86.333 32.28 86.636 31.833 86.761 31.833 C 86.776 31.833 86.779 31.996 86.769 32.195 M 273.714 32.583 C 273.716 33.042 273.748 33.209 273.786 32.956 C 273.825 32.703 273.824 32.328 273.784 32.123 C 273.744 31.918 273.713 32.125 273.714 32.583 M 198.604 32.423 C 198.547 32.572 198.509 32.894 198.519 33.139 C 198.534 33.472 198.571 33.416 198.668 32.917 C 198.806 32.208 198.776 31.975 198.604 32.423 M 217.514 33.13 C 217.506 33.339 217.399 33.549 217.275 33.597 C 217.152 33.644 216.889 33.902 216.69 34.17 C 216.492 34.438 216.428 34.62 216.547 34.574 C 216.666 34.529 217.021 34.721 217.336 35.002 C 218.407 35.959 219.32 35.127 218.309 34.116 C 218.02 33.828 217.727 33.403 217.657 33.171 C 217.534 32.766 217.528 32.765 217.514 33.13 M 229.357 33 C 229.357 33.137 229.421 33.4 229.5 33.583 C 229.59 33.793 229.643 33.824 229.643 33.667 C 229.643 33.529 229.579 33.267 229.5 33.083 C 229.41 32.873 229.357 32.842 229.357 33 M 86.008 33.167 C 86 33.304 85.546 33.857 85 34.396 C 84.098 35.285 83.702 36.162 84.57 35.346 C 84.772 35.156 85.018 35 85.115 35 C 85.213 35 85.386 34.887 85.5 34.75 C 85.713 34.493 85.524 34.402 85.242 34.625 C 85.155 34.694 85.359 34.487 85.697 34.167 C 86.186 33.701 86.281 33.516 86.167 33.25 C 86.07 33.025 86.019 32.998 86.008 33.167 M 210.5 33.337 C 210.5 33.422 210.237 33.731 209.917 34.023 C 208.922 34.928 209.251 35.527 210.762 35.561 L 211.75 35.583 L 211.691 35.083 C 211.606 34.353 210.5 32.732 210.5 33.337 M 77.914 33.504 C 77.856 33.598 77.877 33.654 77.961 33.629 C 78.187 33.561 79.991 35.38 79.878 35.562 C 79.824 35.649 79.872 35.662 79.988 35.591 C 80.13 35.503 79.867 35.135 79.138 34.399 C 77.951 33.201 78.054 33.277 77.914 33.504 M 229.162 33.943 C 229.256 33.99 229.333 34.101 229.333 34.19 C 229.333 34.28 229.267 34.312 229.186 34.262 C 229.104 34.211 228.951 34.275 228.844 34.404 C 228.697 34.581 228.698 34.666 228.851 34.761 C 228.966 34.832 229.147 34.753 229.278 34.574 C 229.531 34.227 229.498 33.957 229.194 33.898 C 229.083 33.876 229.069 33.896 229.162 33.943 M 85.939 34.297 C 85.893 34.372 85.915 34.529 85.988 34.647 C 86.091 34.814 86.142 34.805 86.22 34.603 C 86.324 34.329 86.082 34.065 85.939 34.297 M 67.071 35.405 C 66.939 35.934 67.114 36.484 67.581 37 C 67.851 37.299 67.986 37.711 68.06 38.463 C 68.225 40.146 68.582 40.588 70.031 40.904 C 70.278 40.957 70.526 40.927 70.582 40.836 C 70.639 40.743 70.577 40.711 70.44 40.764 C 70.236 40.842 70.222 40.745 70.354 40.157 C 70.557 39.255 70.288 38.365 69.779 38.255 C 68.976 38.082 68.706 38.094 68.442 38.312 C 68.196 38.517 68.167 38.484 68.167 38.004 C 68.167 37.709 68.002 37.237 67.801 36.954 C 67.599 36.671 67.517 36.491 67.619 36.554 C 67.72 36.616 67.91 36.627 68.041 36.577 C 68.341 36.462 68.353 36 68.056 36 C 67.933 36 67.852 36.084 67.875 36.186 C 67.898 36.289 67.785 36.394 67.625 36.421 C 67.465 36.448 67.333 36.402 67.333 36.319 C 67.333 36.235 67.413 36.167 67.51 36.167 C 67.607 36.167 67.635 36.084 67.572 35.982 C 67.493 35.853 67.411 35.866 67.3 36.024 C 67.195 36.174 67.176 36.041 67.245 35.625 C 67.36 34.932 67.231 34.769 67.071 35.405 M 275 35.354 C 275 35.639 275.975 36.34 276.092 36.139 C 276.162 36.017 276.157 35.974 276.08 36.044 C 276.003 36.114 275.728 35.969 275.47 35.721 C 275.211 35.474 275 35.308 275 35.354 M 80.333 35.657 C 80.333 35.743 80.42 35.867 80.526 35.933 C 80.64 36.003 80.673 35.979 80.607 35.872 C 80.546 35.773 80.628 35.657 80.79 35.615 C 81.013 35.557 80.994 35.534 80.708 35.519 C 80.502 35.509 80.333 35.571 80.333 35.657 M 82.587 35.761 C 82.207 35.959 82 35.978 81.7 35.841 C 81.276 35.648 80.992 35.735 81.013 36.052 C 81.023 36.195 81.05 36.192 81.11 36.042 C 81.157 35.927 81.268 35.833 81.357 35.833 C 81.446 35.833 81.483 35.893 81.438 35.966 C 81.392 36.039 81.424 36.208 81.508 36.341 C 81.614 36.507 81.662 36.518 81.664 36.375 C 81.666 36.26 81.821 36.167 82.01 36.167 C 82.199 36.167 82.311 36.235 82.26 36.318 C 82.208 36.401 82.328 36.427 82.526 36.375 C 82.798 36.304 82.856 36.338 82.764 36.515 C 82.697 36.644 82.749 36.62 82.879 36.461 C 83.01 36.302 83.175 36.227 83.247 36.294 C 83.319 36.362 83.285 36.238 83.171 36.019 C 82.975 35.642 82.987 35.625 83.399 35.704 C 83.638 35.75 83.833 35.723 83.833 35.644 C 83.833 35.413 83.126 35.48 82.587 35.761 M 212.889 35.918 C 212.889 36.047 212.956 36.11 213.038 36.06 C 213.12 36.009 213.35 36.106 213.549 36.275 C 213.884 36.56 213.893 36.561 213.678 36.283 C 213.331 35.836 212.889 35.632 212.889 35.918 M 96.792 36.192 C 96.862 36.46 96.83 36.518 96.667 36.417 C 96.521 36.327 96.489 36.347 96.569 36.477 C 96.635 36.584 96.76 36.629 96.845 36.576 C 97.043 36.454 97.046 36.048 96.849 35.926 C 96.766 35.875 96.74 35.995 96.792 36.192 M 199.548 37.083 C 199.549 37.542 199.581 37.709 199.62 37.456 C 199.658 37.203 199.657 36.828 199.617 36.623 C 199.578 36.418 199.546 36.625 199.548 37.083 M 228.082 37.836 C 228.024 37.929 227.888 37.955 227.78 37.893 C 227.672 37.831 227.639 37.841 227.707 37.916 C 227.775 37.991 227.74 38.172 227.629 38.318 C 227.518 38.464 227.631 38.402 227.88 38.179 C 228.129 37.957 228.333 37.751 228.333 37.721 C 228.333 37.605 228.181 37.675 228.082 37.836 M 277.327 39.95 C 277.542 40.244 277.818 40.523 277.942 40.57 C 278.086 40.625 278.176 40.972 278.193 41.536 L 278.219 42.417 L 278.318 41.583 C 278.375 41.1 278.347 40.699 278.25 40.628 C 278.158 40.56 278.149 40.504 278.229 40.503 C 278.309 40.501 278.291 40.399 278.189 40.276 C 278.086 40.153 278.04 40.003 278.085 39.943 C 278.13 39.883 278.117 39.87 278.057 39.915 C 277.997 39.96 277.847 39.914 277.724 39.811 C 277.601 39.709 277.5 39.682 277.5 39.75 C 277.5 39.818 277.373 39.771 277.218 39.645 C 277.054 39.513 277.1 39.64 277.327 39.95 M 201.036 39.988 C 201.167 40.21 201.456 40.501 201.679 40.633 L 202.083 40.874 L 201.713 40.562 C 201.51 40.39 201.22 40.1 201.07 39.917 C 200.809 39.599 200.808 39.602 201.036 39.988 M 93.458 41.692 C 93.522 41.937 93.491 42.014 93.361 41.934 C 93.242 41.86 93.204 41.903 93.259 42.048 C 93.308 42.176 93.22 42.386 93.064 42.515 C 92.843 42.697 92.763 42.703 92.709 42.542 C 92.67 42.427 92.561 42.333 92.466 42.333 C 92.368 42.333 92.392 42.456 92.521 42.615 C 92.722 42.862 92.714 42.882 92.45 42.783 C 92.283 42.721 92.191 42.738 92.243 42.823 C 92.295 42.906 92.243 43.007 92.127 43.046 C 92.011 43.086 92.104 43.089 92.333 43.053 C 93.075 42.937 93.969 41.707 93.516 41.426 C 93.432 41.375 93.407 41.495 93.458 41.692 M 260.5 44.5 C 260.122 45.412 260.93 46.561 261.671 46.165 C 262.071 45.95 262.107 45.803 261.723 45.95 C 261.536 46.022 261.485 45.993 261.566 45.862 C 261.632 45.754 261.599 45.667 261.492 45.667 C 261.385 45.667 261.339 45.775 261.39 45.908 C 261.453 46.072 261.403 46.119 261.234 46.054 C 261.098 46.002 261.024 45.921 261.07 45.874 C 261.117 45.828 261.08 45.649 260.988 45.478 C 260.789 45.106 261.083 44.429 261.367 44.604 C 261.478 44.673 261.504 44.642 261.433 44.526 C 261.367 44.42 261.201 44.333 261.064 44.333 C 260.926 44.333 260.86 44.258 260.917 44.167 C 260.973 44.075 260.949 44 260.863 44 C 260.777 44 260.614 44.225 260.5 44.5 M 279.5 44.332 C 279.5 44.449 280.131 45.051 280.424 45.214 C 280.715 45.376 280.663 44.714 280.363 44.454 C 280.082 44.21 279.5 44.127 279.5 44.332 M 370.574 45.016 C 370.511 45.116 370.561 45.385 370.683 45.613 C 371.024 46.251 372.163 46.744 372.402 46.357 C 372.45 46.279 372.304 46.25 372.076 46.294 C 371.782 46.35 371.679 46.307 371.72 46.145 C 371.752 46.019 371.747 45.973 371.709 46.042 C 371.569 46.292 371.354 46.158 371.412 45.856 C 371.456 45.627 371.378 45.551 371.111 45.565 C 370.839 45.579 370.753 45.491 370.763 45.208 C 370.778 44.789 370.739 44.749 370.574 45.016 M 74.681 45.375 C 74.719 45.398 74.975 45.604 75.25 45.833 L 75.75 46.25 L 75.346 45.792 C 75.124 45.54 74.867 45.333 74.777 45.333 C 74.686 45.333 74.642 45.352 74.681 45.375 M 88.458 45.451 C 88.665 45.491 89.002 45.491 89.208 45.451 C 89.415 45.411 89.246 45.379 88.833 45.379 C 88.421 45.379 88.252 45.411 88.458 45.451 M 87.194 45.717 C 87.089 45.844 87.052 45.997 87.113 46.057 C 87.173 46.117 87.141 46.167 87.042 46.167 C 86.942 46.167 86.83 46.11 86.791 46.042 C 86.753 45.973 86.748 46.019 86.78 46.145 C 86.822 46.309 86.716 46.35 86.406 46.291 C 86.118 46.235 86.03 46.263 86.142 46.375 C 86.341 46.575 86.954 46.443 87.417 46.102 C 87.659 45.923 87.7 45.805 87.568 45.671 C 87.435 45.536 87.334 45.548 87.194 45.717 M 325.765 45.728 C 325.894 46.065 326.522 46.378 326.704 46.196 C 326.813 46.087 326.765 46.04 326.563 46.057 C 326.395 46.072 326.256 45.978 326.254 45.849 C 326.252 45.72 326.124 45.597 325.97 45.574 C 325.813 45.551 325.723 45.619 325.765 45.728 M 380.915 45.669 C 380.857 45.763 380.739 45.794 380.651 45.74 C 380.563 45.686 380.512 45.741 380.538 45.863 C 380.564 45.989 380.452 46.072 380.274 46.057 C 380.045 46.038 380.013 46.08 380.151 46.218 C 380.289 46.356 380.456 46.286 380.79 45.952 C 381.039 45.704 381.192 45.5 381.131 45.5 C 381.07 45.5 380.973 45.576 380.915 45.669 M 335.675 45.992 C 335.542 46.076 335.385 46.115 335.327 46.08 C 335.27 46.044 335.222 46.117 335.222 46.243 C 335.222 46.429 335.295 46.424 335.611 46.216 C 335.825 46.076 336 45.933 336 45.897 C 336 45.804 335.945 45.82 335.675 45.992 M 26.39 49.268 C 25.496 49.708 25.417 50.143 25.417 54.591 C 25.417 59.842 25.185 59.462 28.41 59.491 L 30.833 59.512 L 30.833 55.048 C 30.833 50.167 30.748 49.67 29.833 49.213 C 29.235 48.914 27.036 48.949 26.39 49.268 M 40.897 49.318 C 40.611 49.493 40.292 49.879 40.188 50.176 C 39.891 51.028 39.935 58.188 40.241 58.922 L 40.483 59.5 L 44.417 59.5 L 48.35 59.5 L 48.592 58.922 C 48.779 58.474 48.833 57.48 48.833 54.5 C 48.833 48.856 48.949 49 44.383 49.001 C 41.762 49.001 41.356 49.038 40.897 49.318 M 59.167 49.116 C 58.65 49.329 57.143 51.003 56.991 51.531 C 56.501 53.24 56.838 57.592 57.519 58.355 C 57.784 58.651 58 59.032 58 59.202 C 58 59.488 58.152 59.507 60.125 59.463 L 62.25 59.417 L 62.333 58.585 C 62.4 57.916 62.482 57.743 62.75 57.7 C 64.355 57.448 64.534 56.967 64.469 53.082 L 64.417 50.007 L 63.955 49.545 C 63.494 49.084 60.003 48.771 59.167 49.116 M 74.737 49.23 C 73.84 49.632 73.75 50.12 73.75 54.591 C 73.75 58.159 73.783 58.648 74.048 59.053 L 74.346 59.507 L 77.629 59.462 L 80.912 59.417 L 81.165 58.917 C 81.831 57.594 81.577 50.445 80.834 49.612 L 80.361 49.083 L 77.806 49.042 C 75.921 49.012 75.115 49.061 74.737 49.23 M 91.564 49.264 C 90.664 49.708 90.599 50.033 90.533 54.402 C 90.5 56.594 90.52 58.638 90.577 58.944 L 90.682 59.5 L 94.417 59.5 L 98.152 59.5 L 98.256 58.944 C 98.458 57.865 98.258 50.452 98.014 49.966 C 97.532 49.009 93.066 48.523 91.564 49.264 M 108.516 49.211 C 107.476 49.745 107.422 49.987 107.361 54.372 C 107.331 56.58 107.352 58.633 107.409 58.934 L 107.511 59.481 L 112.179 59.495 L 116.847 59.509 L 117.09 58.927 C 117.479 57.995 117.44 50.797 117.041 50.002 C 116.557 49.036 114.336 48.62 112.917 49.23 C 112.506 49.406 112.321 49.405 111.88 49.222 C 111.208 48.944 109.05 48.936 108.516 49.211 M 128.833 49.123 C 127.467 49.65 126.5 51.443 126.5 53.451 C 126.5 54.617 126.454 54.846 126.19 54.988 C 125.431 55.394 125.109 58.128 125.711 59.048 L 125.993 59.478 L 129.806 59.494 C 134.461 59.513 134.083 59.757 134.083 56.735 C 134.083 54.574 134.073 54.511 133.644 54.053 C 133.25 53.631 133.197 53.422 133.124 52 C 133.028 50.152 132.822 49.612 132.077 49.258 C 131.54 49.003 129.377 48.913 128.833 49.123 M 143.23 49.264 C 142.116 49.814 141.99 52.474 143.06 52.885 C 143.251 52.958 143.311 53.539 143.358 55.787 C 143.438 59.621 143.315 59.46 146.165 59.49 L 148.345 59.513 L 148.589 58.928 C 148.756 58.529 148.833 57.731 148.833 56.404 C 148.833 54.584 148.859 54.435 149.246 53.975 C 150.406 52.596 150.14 49.647 148.814 49.185 C 147.98 48.894 143.862 48.952 143.23 49.264 M 160.25 49.158 C 159.265 49.561 159.254 49.624 159.207 54.809 C 159.177 58.02 159.217 59.501 159.329 59.333 C 159.44 59.166 159.496 59.152 159.497 59.292 C 159.499 59.446 159.994 59.5 161.409 59.5 L 163.318 59.5 L 163.423 58.944 C 163.625 57.865 163.425 50.452 163.18 49.966 C 162.78 49.172 161.249 48.749 160.25 49.158 M 174.882 49.169 C 174.339 49.388 172.85 50.968 172.707 51.477 C 172.458 52.363 172.562 58.374 172.835 58.917 L 173.088 59.417 L 176.335 59.463 C 180.163 59.518 180.167 59.517 180.167 57.837 C 180.167 56.624 179.779 56.075 178.737 55.813 C 177.563 55.517 177.654 54.749 179.029 53.358 C 180.533 51.834 180.63 49.816 179.227 49.229 C 178.606 48.97 175.484 48.927 174.882 49.169 M 191.667 49.22 C 190.167 50.006 189.5 51.209 189.5 53.128 C 189.5 54.526 189.484 54.584 188.959 55.125 C 188.298 55.808 188.09 57.761 188.559 58.883 L 188.816 59.5 L 192.715 59.5 L 196.613 59.5 L 196.838 59.042 C 197.473 57.746 197.195 53.605 196.417 52.766 C 196.083 52.406 196 52.143 196 51.45 C 195.999 50.427 195.588 49.507 195 49.213 C 194.448 48.937 192.198 48.942 191.667 49.22 M 234.349 49.211 C 233.297 49.752 233.25 49.974 233.25 54.387 C 233.25 57.651 233.298 58.512 233.502 58.917 L 233.754 59.417 L 235.936 59.463 C 238.366 59.515 238.401 59.501 238.629 58.404 C 238.724 57.945 238.861 57.736 239.091 57.7 C 240.705 57.443 241.499 55.298 240.69 53.38 C 240.516 52.966 240.506 52.722 240.649 52.314 C 241.12 50.963 240.73 49.504 239.814 49.185 C 239.076 48.928 234.861 48.948 234.349 49.211 M 251.333 49.113 C 251.196 49.168 250.633 49.659 250.083 50.204 L 249.083 51.196 L 249.03 53.968 C 248.962 57.478 248.997 57.648 249.987 58.67 L 250.792 59.5 L 254.036 59.5 L 257.28 59.5 L 257.51 59.042 C 257.671 58.719 257.758 57.696 257.8 55.592 C 257.884 51.471 257.862 51.365 256.64 50.112 L 255.637 49.083 L 253.61 49.048 C 252.495 49.029 251.471 49.058 251.333 49.113 M 268 49.206 C 267.084 49.679 267.001 50.168 267 55.042 L 267 59.5 L 270.834 59.5 L 274.668 59.5 L 274.626 55.348 L 274.583 51.196 L 273.527 50.14 L 272.471 49.083 L 270.444 49.037 C 269.033 49.005 268.29 49.056 268 49.206 M 284.73 49.318 C 283.905 49.821 283.833 50.286 283.833 55.108 L 283.833 59.5 L 285.908 59.5 C 287.709 59.5 288.006 59.461 288.153 59.208 C 288.314 58.932 288.323 58.932 288.328 59.214 C 288.338 59.777 293.086 59.611 293.463 59.036 C 294.179 57.943 293.889 52.424 293.076 51.66 C 292.851 51.448 292.667 51.177 292.667 51.058 C 292.667 49.492 290.873 48.533 289.25 49.23 C 288.839 49.406 288.654 49.405 288.214 49.222 C 287.384 48.878 285.36 48.934 284.73 49.318 M 304.016 49.211 C 303.192 49.635 302.961 50.187 302.875 51.945 C 302.802 53.428 302.753 53.628 302.356 54.052 C 301.928 54.509 301.915 54.585 301.863 57.01 L 301.809 59.5 L 305.901 59.5 C 310.607 59.5 310.39 59.577 310.595 57.83 C 310.725 56.724 310.474 55.692 309.912 55.025 C 309.525 54.565 309.5 54.416 309.5 52.596 C 309.5 49.366 309.164 48.998 306.217 49.002 C 305.12 49.004 304.26 49.085 304.016 49.211 M 321 49.113 C 320.862 49.168 320.3 49.659 319.75 50.205 L 318.75 51.196 L 318.699 54.748 C 318.658 57.619 318.697 58.416 318.899 58.9 L 319.15 59.5 L 322.741 59.5 L 326.333 59.5 L 326.333 58.428 C 326.333 56.737 325.989 56.145 324.826 55.831 C 323.733 55.537 323.851 54.644 325.163 53.283 C 326.523 51.872 326.71 50.361 325.643 49.395 C 325.294 49.078 321.641 48.856 321 49.113 M 336.383 49.326 C 335.573 49.82 335.488 50.412 335.539 55.195 L 335.583 59.417 L 337.708 59.463 L 339.833 59.51 L 339.833 55.083 C 339.833 50.186 339.756 49.727 338.855 49.261 C 338.159 48.901 337.032 48.931 336.383 49.326 M 351.333 49.113 C 351.196 49.168 350.633 49.659 350.083 50.205 L 349.083 51.196 L 349.033 54.748 C 348.992 57.619 349.03 58.416 349.232 58.9 L 349.483 59.5 L 352.751 59.5 L 356.019 59.5 L 356.823 58.661 C 357.788 57.655 357.833 57.464 357.833 54.436 C 357.833 51.513 357.747 51.211 356.569 50.033 L 355.621 49.083 L 353.602 49.048 C 352.492 49.029 351.471 49.058 351.333 49.113 M 366.717 49.326 C 365.904 49.822 365.803 50.473 365.866 54.809 C 365.907 57.62 365.981 58.7 366.154 59.042 L 366.387 59.5 L 370.527 59.5 L 374.667 59.5 L 374.667 55.078 C 374.667 48.767 374.837 49 370.217 49.001 C 367.569 49.001 367.193 49.036 366.717 49.326 M 57.124 55.708 C 57.092 56.373 57.066 55.829 57.066 54.5 C 57.066 53.171 57.092 52.627 57.124 53.292 C 57.155 53.956 57.155 55.044 57.124 55.708 M 357.624 55.534 C 357.592 56.203 357.566 55.7 357.566 54.417 C 357.565 53.133 357.591 52.586 357.623 53.201 C 357.655 53.816 357.656 54.866 357.624 55.534 M 126.788 53.955 C 126.752 54.3 126.722 54.058 126.721 53.417 C 126.721 52.775 126.75 52.492 126.787 52.788 C 126.824 53.084 126.824 53.609 126.788 53.955 M 257.624 56.542 C 257.593 57.298 257.568 56.679 257.568 55.167 C 257.568 53.654 257.593 53.035 257.624 53.792 C 257.655 54.548 257.655 55.785 257.624 56.542 M 143.618 55.042 C 143.578 55.248 143.545 55.079 143.545 54.667 C 143.545 54.254 143.578 54.085 143.618 54.292 C 143.657 54.498 143.657 54.835 143.618 55.042 M 196.956 56.792 C 196.922 57.227 196.893 56.871 196.893 56 C 196.893 55.129 196.922 54.773 196.956 55.208 C 196.99 55.644 196.99 56.356 196.956 56.792 M 390.545 58.333 C 390.545 58.746 390.578 58.915 390.618 58.708 C 390.657 58.502 390.657 58.165 390.618 57.958 C 390.578 57.752 390.545 57.921 390.545 58.333 M 62.115 58.792 C 62.073 58.952 62.039 58.821 62.039 58.5 C 62.039 58.179 62.073 58.048 62.115 58.208 C 62.157 58.369 62.157 58.631 62.115 58.792" stroke-linecap="round" />
</g>
		<g transform="matrix(1 0 0 1 0 -20.03)"  >
<path style="stroke: none; stroke-width: 1; stroke-dasharray: none; stroke-linecap: butt; stroke-dashoffset: 0; stroke-linejoin: miter; stroke-miterlimit: 4; fill: rgb(140,132,132); fill-rule: evenodd; opacity: 1;" vector-effect="non-scaling-stroke"  transform=" translate(-200, -29.73)" d="M 7.782 0.422 C 7.525 0.648 7.165 0.833 6.981 0.833 C 6.797 0.833 6.689 0.901 6.74 0.984 C 6.792 1.068 6.699 1.1 6.535 1.058 C 6.358 1.011 6.104 1.135 5.91 1.362 C 5.585 1.743 5.585 1.743 5.917 1.497 C 6.225 1.269 6.233 1.272 6.023 1.54 C 5.898 1.699 5.734 1.792 5.659 1.745 C 5.351 1.555 2.2 4.933 1.982 5.687 C 1.865 6.088 1.571 6.65 1.327 6.936 C 1.083 7.221 0.836 7.752 0.777 8.116 C 0.719 8.48 0.522 8.913 0.338 9.079 C 0.007 9.379 0.004 9.584 0.001 34.441 L -0.002 59.5 L 4.648 59.5 C 8.734 59.5 9.31 59.468 9.399 59.236 C 9.454 59.091 9.5 52.154 9.5 43.82 L 9.5 28.667 L 12.561 28.667 C 16.938 28.667 18.333 28.266 18.333 27.008 C 18.333 26.832 18.42 26.477 18.527 26.219 C 18.633 25.961 18.708 25.694 18.694 25.625 C 18.679 25.556 18.723 25.519 18.792 25.541 C 19.007 25.612 20.179 24.604 20.428 24.133 C 20.716 23.589 20.757 20.643 20.488 19.869 C 20.112 18.793 19.943 18.759 14.5 18.667 L 9.583 18.583 L 9.536 16.77 C 9.497 15.279 9.537 14.902 9.76 14.655 C 9.91 14.49 9.987 14.28 9.93 14.189 C 9.874 14.098 9.916 13.969 10.023 13.902 C 10.153 13.822 10.173 13.855 10.083 14 C 9.991 14.15 10.013 14.178 10.155 14.09 C 10.269 14.02 10.325 13.821 10.28 13.648 C 10.235 13.475 10.266 13.375 10.349 13.426 C 10.432 13.478 10.5 13.145 10.5 12.686 C 10.5 12.228 10.579 11.804 10.675 11.745 C 10.783 11.678 10.791 11.563 10.697 11.443 C 10.32 10.964 10.558 9.602 11.05 9.428 C 11.525 9.26 12.657 10.111 12.435 10.47 C 12.318 10.659 13.842 10.438 14.272 10.203 C 14.468 10.097 14.671 9.895 14.725 9.755 C 14.81 9.534 15.51 9.5 20.005 9.5 C 23.55 9.5 25.153 9.445 25.079 9.327 C 25.01 9.215 25.119 9.19 25.385 9.257 C 26.292 9.485 27.358 8.504 26.979 7.792 C 26.802 7.46 26.809 7.441 27.039 7.631 C 27.268 7.82 27.313 7.727 27.414 6.855 C 27.5 6.116 27.632 5.767 27.934 5.483 C 28.165 5.267 28.384 4.822 28.444 4.452 C 28.502 4.088 28.75 3.58 29.007 3.299 C 29.259 3.023 29.511 2.571 29.566 2.294 C 29.727 1.49 29.686 0.302 29.502 0.415 C 29.407 0.474 29.379 0.407 29.436 0.259 C 29.525 0.027 28.444 0.001 18.893 0.005 L 8.25 0.011 L 7.782 0.422 M 67.225 0.246 C 67.279 0.385 67.25 0.5 67.161 0.5 C 67.058 0.5 67.001 6.806 67.003 17.958 C 67.004 30.151 67.058 35.341 67.179 35.167 C 67.308 34.982 67.325 35.062 67.243 35.474 C 67.153 35.934 67.224 36.158 67.65 36.752 C 67.971 37.199 68.167 37.674 68.167 38.006 C 68.167 38.485 68.196 38.517 68.442 38.312 C 68.706 38.094 68.976 38.082 69.779 38.255 C 70.288 38.365 70.557 39.255 70.354 40.157 C 70.222 40.745 70.236 40.842 70.44 40.764 C 70.574 40.713 70.645 40.733 70.598 40.809 C 70.551 40.886 70.997 41.465 71.59 42.096 C 72.182 42.728 72.667 43.396 72.667 43.581 C 72.669 44.443 73.622 45.333 74.545 45.333 C 74.741 45.333 75.152 45.577 75.459 45.875 L 76.018 46.417 L 81.108 46.467 C 84.137 46.498 86.16 46.457 86.104 46.367 C 86.052 46.283 86.18 46.247 86.387 46.287 C 86.606 46.329 86.905 46.231 87.099 46.055 C 87.282 45.887 87.316 45.821 87.175 45.909 C 86.963 46.039 86.954 46.026 87.122 45.836 C 87.356 45.574 87.472 45.546 89.083 45.358 C 90.778 45.161 91.144 44.906 91.399 43.748 C 91.485 43.354 91.691 43.163 92.379 42.833 C 92.966 42.552 93.243 42.322 93.227 42.127 C 93.214 41.964 93.281 41.884 93.378 41.945 C 93.488 42.012 93.518 41.919 93.458 41.692 C 93.407 41.495 93.432 41.375 93.516 41.426 C 93.599 41.478 93.668 41.384 93.669 41.218 C 93.67 41.052 94.15 40.405 94.736 39.78 C 95.495 38.97 95.833 38.468 95.914 38.03 C 95.976 37.693 96.179 37.253 96.364 37.054 C 96.56 36.843 96.649 36.606 96.575 36.487 C 96.488 36.347 96.518 36.325 96.667 36.417 C 96.83 36.518 96.862 36.46 96.792 36.192 C 96.74 35.995 96.756 35.869 96.827 35.913 C 97.154 36.115 97.376 2.538 97.06 0.625 L 96.956 0 L 92.155 0 L 87.354 0 L 87.253 0.708 C 87.198 1.098 87.174 8.179 87.201 16.444 C 87.228 24.71 87.223 31.445 87.19 31.412 C 87.097 31.319 86.333 32.274 86.333 32.482 C 86.333 32.584 86.406 32.667 86.495 32.667 C 86.584 32.667 86.614 32.535 86.562 32.375 C 86.482 32.124 86.496 32.118 86.667 32.333 C 86.838 32.549 86.852 32.544 86.773 32.297 C 86.723 32.14 86.753 31.966 86.841 31.912 C 86.928 31.858 87 31.898 87 32 C 87 32.102 87.075 32.14 87.167 32.083 C 87.258 32.027 87.333 32.03 87.333 32.091 C 87.333 32.266 86.439 32.922 86.274 32.868 C 86.192 32.841 86.162 33.01 86.206 33.242 C 86.257 33.51 86.189 33.741 86.018 33.874 C 85.775 34.064 85.773 34.052 85.997 33.75 C 86.242 33.42 86.241 33.42 85.871 33.735 C 85.666 33.91 85.533 34.088 85.575 34.131 C 85.618 34.173 85.523 34.33 85.364 34.479 C 85.206 34.628 85.149 34.694 85.238 34.625 C 85.532 34.398 85.712 34.495 85.49 34.762 C 85.371 34.905 85.141 34.989 84.979 34.946 C 84.812 34.902 84.557 35.021 84.384 35.224 C 84.09 35.57 84.09 35.572 84.417 35.33 C 84.723 35.104 84.732 35.107 84.529 35.365 C 84.408 35.52 84.202 35.606 84.071 35.556 C 83.94 35.505 83.833 35.545 83.833 35.644 C 83.833 35.742 83.717 35.778 83.574 35.723 C 83.432 35.669 83.015 35.76 82.648 35.925 C 82.019 36.209 81.952 36.21 81.506 35.947 C 80.943 35.614 80.434 35.575 80.586 35.875 C 80.644 35.99 80.578 35.945 80.44 35.775 C 80.294 35.595 80.104 35.519 79.985 35.592 C 79.872 35.662 79.825 35.649 79.878 35.562 C 79.973 35.408 78.206 33.557 78.015 33.611 C 77.961 33.626 77.919 30.739 77.923 27.195 L 77.929 20.75 L 77.84 26.528 C 77.79 29.706 77.69 32.366 77.617 32.439 C 77.404 32.651 77.501 20.827 77.715 20.485 C 77.86 20.253 77.805 20.061 77.448 19.546 L 77 18.899 L 76.999 10.324 C 76.998 5.608 76.95 1.36 76.893 0.884 L 76.789 0.019 L 71.958 0.005 C 67.692 -0.007 67.139 0.021 67.225 0.246 M 133.333 0.391 C 133.333 0.606 133.173 0.925 132.977 1.099 C 131.97 1.997 131.874 4.54 132.809 5.568 C 133.009 5.788 133.191 6.37 133.302 7.144 C 133.623 9.378 133.933 9.498 139.371 9.499 L 143.325 9.5 L 143.371 27.792 C 143.414 44.888 143.436 46.118 143.71 46.62 C 144.2 47.516 145.224 47.813 146.421 47.407 C 147.089 47.18 147.245 47.18 147.922 47.41 C 149.65 47.997 150.944 47.682 152.222 46.365 C 153.37 45.182 153.325 45.953 153.329 27.221 L 153.333 10.192 L 152.847 9.706 C 152.189 9.047 152.081 8.333 152.64 8.333 C 152.92 8.333 154.055 9.39 153.919 9.525 C 153.887 9.557 155.545 9.562 157.603 9.536 C 159.661 9.509 161.309 9.429 161.265 9.357 C 161.221 9.286 161.388 9.257 161.636 9.293 C 162.179 9.373 163.068 8.75 162.929 8.388 C 162.878 8.257 162.903 8.19 162.983 8.239 C 163.221 8.387 163.328 7.71 163.441 5.333 C 163.553 2.951 163.398 0.107 163.163 0.252 C 163.086 0.3 162.976 0.263 162.918 0.169 C 162.849 0.057 157.878 0 148.073 0 L 133.333 0 L 133.333 0.391 M 199.208 0.115 C 199.094 0.159 199 0.272 199 0.368 C 199 0.472 199.099 0.459 199.25 0.333 C 199.423 0.19 199.5 0.184 199.5 0.313 C 199.5 0.416 199.425 0.509 199.333 0.521 C 199.242 0.532 199.073 0.552 198.958 0.565 C 198.844 0.577 198.753 0.787 198.756 1.031 C 198.759 1.275 198.702 1.439 198.631 1.394 C 198.559 1.35 198.501 8.349 198.503 16.948 C 198.504 27.254 198.561 32.498 198.669 32.333 C 198.782 32.16 198.795 32.263 198.709 32.667 C 198.398 34.129 198.547 35.277 199.125 35.874 C 199.609 36.373 199.667 36.535 199.667 37.391 C 199.667 38.31 200.011 39.333 200.321 39.333 C 200.47 39.333 201.161 40.003 203.333 42.255 C 204.697 43.668 205.38 44.165 205.96 44.166 C 206.167 44.166 206.467 44.323 206.627 44.513 C 206.983 44.939 207.708 45.333 208.136 45.333 C 208.311 45.333 208.652 45.488 208.893 45.677 C 209.133 45.867 209.408 45.974 209.503 45.915 C 209.597 45.857 209.654 45.901 209.629 46.015 C 209.547 46.384 210.361 46.467 214.083 46.467 C 217.805 46.467 218.62 46.384 218.538 46.015 C 218.512 45.901 218.573 45.859 218.673 45.921 C 218.773 45.982 218.994 45.906 219.165 45.751 C 219.336 45.597 219.8 45.397 220.196 45.309 C 220.593 45.22 221.104 44.976 221.333 44.767 C 221.628 44.498 222.108 44.334 222.975 44.206 C 224.377 44 224.895 43.637 225.115 42.707 C 225.232 42.213 225.364 42.078 225.919 41.89 C 226.937 41.546 227.287 41.037 227.414 39.715 C 227.475 39.093 227.568 38.471 227.622 38.333 C 227.676 38.196 227.706 38.022 227.689 37.946 C 227.672 37.87 227.727 37.851 227.81 37.902 C 228.184 38.134 228.443 37.285 228.734 34.869 C 228.759 34.659 228.882 34.396 229.007 34.285 C 229.172 34.138 229.168 34.174 228.992 34.417 C 228.769 34.724 228.773 34.732 229.039 34.524 C 229.198 34.399 229.403 34.024 229.496 33.69 C 229.705 32.938 229.733 1.44 229.524 1.568 C 229.446 1.617 229.414 1.488 229.453 1.283 C 229.495 1.065 229.378 0.724 229.174 0.464 L 228.824 0.018 L 223.809 0.005 L 218.795 -0.009 L 218.904 0.426 C 218.975 0.709 218.953 0.824 218.84 0.754 C 218.72 0.68 218.667 5.368 218.667 15.856 L 218.667 31.065 L 218.244 31.506 C 217.895 31.87 217.292 33.931 217.634 33.588 C 217.681 33.541 217.969 33.76 218.275 34.075 C 219.298 35.128 218.438 35.986 217.341 35.007 C 216.604 34.349 216.648 34.337 215.46 35.5 C 214.408 36.529 213.893 36.723 213.494 36.242 C 213.376 36.101 213.18 36.023 213.059 36.07 C 212.937 36.116 212.855 36.075 212.877 35.977 C 212.899 35.879 212.598 35.703 212.21 35.584 C 211.821 35.466 211.535 35.422 211.575 35.486 C 211.75 35.77 209.761 35.521 209.55 35.232 C 209.224 34.786 209.279 34.603 209.917 34.023 C 210.726 33.286 210.656 32.085 209.761 31.342 C 209.528 31.149 209.5 29.514 209.5 15.886 C 209.5 5.378 209.446 0.68 209.327 0.754 C 209.214 0.824 209.192 0.709 209.262 0.426 L 209.372 -0.009 L 204.394 0.014 C 201.657 0.026 199.323 0.072 199.208 0.115 M 260.843 0.407 C 260.575 0.692 260.502 0.909 260.585 1.173 C 260.665 1.423 260.643 1.505 260.518 1.428 C 260.383 1.345 260.336 7.192 260.345 23.032 C 260.353 38.773 260.406 44.647 260.537 44.375 C 260.636 44.169 260.786 44 260.869 44 C 260.952 44 260.973 44.075 260.917 44.167 C 260.86 44.258 260.926 44.333 261.064 44.333 C 261.201 44.333 261.367 44.42 261.433 44.526 C 261.504 44.642 261.478 44.673 261.367 44.604 C 261.061 44.415 260.791 45.109 261.011 45.52 C 261.163 45.805 261.156 45.851 260.975 45.756 C 260.851 45.691 260.938 45.796 261.167 45.989 C 261.403 46.187 261.744 46.313 261.953 46.277 C 262.157 46.243 262.284 46.279 262.235 46.357 C 262.187 46.436 262.475 46.5 262.877 46.5 C 263.445 46.5 263.725 46.606 264.143 46.979 C 265.06 47.798 266.438 47.799 267.353 46.983 C 267.798 46.585 268.042 46.5 268.738 46.5 C 271.253 46.499 271.233 46.575 271.333 36.592 L 271.417 28.267 L 272.029 28.916 C 272.375 29.283 272.689 29.815 272.749 30.137 C 272.869 30.774 273.17 31.333 273.394 31.333 C 273.475 31.333 273.438 31.209 273.312 31.056 C 273.116 30.819 273.119 30.791 273.333 30.862 C 273.609 30.953 273.628 31.032 273.801 32.833 C 273.868 33.521 273.996 34.199 274.086 34.34 C 274.322 34.709 275.935 36.176 276.016 36.095 C 276.053 36.058 276.056 36.409 276.024 36.875 C 275.928 38.228 276.196 38.818 277.371 39.84 L 278.417 40.75 L 278.366 41.735 C 278.3 43.005 278.517 43.497 279.425 44.137 C 279.831 44.423 280.37 44.956 280.623 45.322 C 281.391 46.43 281.681 46.5 285.525 46.499 C 290.462 46.498 290.438 46.52 290.352 42 C 290.31 39.778 290.04 39.271 288.756 39.007 C 288.346 38.923 288.211 38.764 287.966 38.078 C 287.803 37.622 287.557 37.166 287.417 37.064 C 287.278 36.962 287.06 36.532 286.933 36.108 C 286.805 35.685 286.506 35.107 286.267 34.823 C 286.029 34.54 285.833 34.137 285.833 33.929 C 285.833 33.72 285.647 33.294 285.42 32.983 C 284.916 32.291 284.72 31.891 284.591 31.287 C 284.536 31.033 284.338 30.672 284.151 30.484 C 283.964 30.297 283.707 29.801 283.581 29.383 C 283.455 28.964 283.152 28.413 282.908 28.158 C 282.384 27.61 282.458 27.41 283.237 27.263 C 283.985 27.123 288.928 22.302 289.088 21.557 C 289.225 20.917 289.426 20.503 289.858 19.965 C 290.094 19.673 290.295 19.057 290.431 18.215 C 290.705 16.52 290.742 16.367 290.911 16.213 C 290.989 16.142 290.998 16.196 290.931 16.333 C 290.864 16.471 290.931 16.433 291.08 16.25 C 291.256 16.034 291.321 15.74 291.265 15.417 C 291.134 14.665 291.105 11.839 291.227 11.717 C 291.517 11.427 291.33 11.118 291.029 11.391 C 290.525 11.847 290.317 11.733 290.388 11.042 C 290.423 10.698 290.519 10.454 290.601 10.5 C 290.683 10.546 290.722 10.658 290.688 10.75 C 290.654 10.842 290.608 11.029 290.587 11.167 C 290.565 11.304 290.58 11.322 290.62 11.206 C 290.659 11.091 290.756 11.036 290.834 11.084 C 291.175 11.294 291.168 10.772 290.825 10.408 C 290.502 10.064 290.432 9.752 290.332 8.212 C 290.176 5.828 290.019 5.547 288.686 5.254 C 288.345 5.179 288.094 5.009 288.044 4.818 C 287.999 4.645 287.888 4.55 287.797 4.606 C 287.693 4.67 287.676 4.567 287.75 4.333 C 287.824 4.1 287.807 3.997 287.703 4.061 C 287.612 4.117 287.548 4.033 287.56 3.873 C 287.573 3.712 287.467 3.582 287.32 3.581 C 287.033 3.578 286.154 2.895 285.927 2.498 C 285.848 2.362 286.114 2.55 286.517 2.917 L 287.25 3.583 L 286.584 2.868 C 286.218 2.475 285.731 2.108 285.501 2.053 C 284.926 1.917 284.667 1.684 284.667 1.305 C 284.667 1.128 284.552 0.761 284.411 0.49 L 284.156 -0.004 L 272.686 0.002 L 261.216 0.009 L 260.843 0.407 M 377.616 0.297 C 377.463 0.466 377.289 0.846 377.23 1.139 C 377.172 1.433 377.057 1.715 376.976 1.765 C 376.894 1.815 376.868 1.921 376.917 2 C 376.965 2.079 376.918 2.198 376.81 2.264 C 376.688 2.34 376.66 2.313 376.734 2.192 C 376.81 2.069 376.72 2 376.482 2 C 375.984 2 373.92 4.051 374.058 4.409 C 374.112 4.551 374.084 4.667 373.995 4.667 C 373.906 4.667 373.833 4.777 373.833 4.911 C 373.833 5.045 373.606 5.402 373.328 5.703 C 373.05 6.004 372.633 6.456 372.401 6.708 C 372.168 6.962 372.033 7.252 372.099 7.359 C 372.169 7.471 372.146 7.507 372.043 7.443 C 371.862 7.332 371.667 7.676 371.667 8.107 C 371.667 8.249 371.755 8.308 371.875 8.247 C 371.99 8.189 371.946 8.254 371.778 8.391 C 371.435 8.671 371.547 9.022 372.151 9.569 C 372.804 10.16 372.486 11.833 371.721 11.833 C 371.627 11.833 371.38 11.982 371.171 12.163 C 370.961 12.345 370.744 12.464 370.687 12.429 C 370.63 12.394 370.583 19.701 370.583 28.667 C 370.583 37.632 370.633 44.938 370.693 44.901 C 370.753 44.863 370.766 44.971 370.722 45.141 C 370.609 45.57 371.595 46.386 372.108 46.288 C 372.318 46.248 372.45 46.279 372.402 46.357 C 372.303 46.517 379.204 46.552 379.79 46.395 C 379.995 46.34 380.127 46.237 380.083 46.167 C 380.039 46.096 380.134 46.048 380.293 46.06 C 380.454 46.073 380.563 45.985 380.538 45.863 C 380.512 45.741 380.56 45.684 380.644 45.736 C 381.193 46.076 381.249 45.372 381.333 37.016 L 381.417 28.75 L 386 28.75 L 390.583 28.75 L 390.62 43.167 C 390.64 51.096 390.659 57.982 390.662 58.468 C 390.665 58.971 390.734 59.312 390.822 59.257 C 390.907 59.204 391.024 59.237 391.082 59.331 C 391.148 59.438 392.788 59.5 395.593 59.5 L 400 59.5 L 400 33.787 C 400 8.975 399.989 8.065 399.692 7.81 C 399.522 7.665 399.335 7.242 399.275 6.871 C 399.205 6.43 398.994 6.032 398.667 5.723 C 398.392 5.464 398.167 5.115 398.167 4.949 C 398.167 4.783 398.099 4.689 398.016 4.74 C 397.932 4.792 397.9 4.7 397.942 4.536 C 398.021 4.234 397.401 3.281 397.195 3.389 C 397.134 3.421 396.952 3.309 396.792 3.14 C 396.631 2.971 396.547 2.833 396.604 2.833 C 396.661 2.833 396.617 2.724 396.506 2.591 C 396.346 2.397 396.241 2.388 395.988 2.546 C 395.678 2.74 395.678 2.747 396.002 2.867 C 396.316 2.983 396.475 3.339 396.208 3.328 C 395.694 3.306 395.447 2.835 395.763 2.478 L 396.083 2.118 L 395.667 2.336 C 395.273 2.543 395.264 2.538 395.5 2.25 C 395.735 1.963 395.72 1.952 395.25 2.069 C 394.976 2.138 394.8 2.144 394.861 2.083 C 395.017 1.927 393.714 0.785 393.518 0.906 C 393.429 0.961 393.312 0.934 393.258 0.846 C 393.204 0.759 393.013 0.715 392.833 0.75 C 392.645 0.786 392.523 0.729 392.545 0.615 C 392.566 0.506 392.48 0.438 392.355 0.465 C 392.213 0.495 392.162 0.42 392.22 0.269 C 392.382 -0.155 378.001 -0.128 377.616 0.297 M 392.5 0.146 C 392.5 0.227 392.613 0.386 392.75 0.5 C 392.887 0.614 393 0.652 393 0.583 C 393 0.515 393.131 0.56 393.292 0.683 C 393.452 0.806 393.402 0.703 393.179 0.453 C 392.773 -0.002 392.5 -0.126 392.5 0.146 M 336.199 7.091 L 336.167 12.433 L 334.708 12.285 C 333.906 12.203 331.617 12.172 329.62 12.215 C 326.066 12.291 325.986 12.286 325.743 11.939 C 325.523 11.626 325.5 13.489 325.539 28.446 L 325.583 45.307 L 325.992 45.742 C 326.217 45.981 326.502 46.138 326.626 46.09 C 326.749 46.043 326.81 46.069 326.761 46.15 C 326.621 46.375 327.293 46.495 328.709 46.498 C 329.88 46.5 330.037 46.54 330.365 46.917 C 330.995 47.642 332.922 47.913 334.061 47.437 C 334.682 47.177 335.384 46.383 335.222 46.121 C 335.161 46.023 335.196 45.998 335.302 46.064 C 335.58 46.236 336.212 45.526 336.114 45.151 C 336.069 44.976 336.089 44.869 336.16 44.913 C 336.515 45.132 336.619 23.909 336.342 8.083 L 336.231 1.75 L 336.199 7.091 M 375.948 2.708 C 375.958 2.915 375.928 2.982 375.88 2.859 C 375.821 2.704 375.557 2.858 375.022 3.359 L 374.25 4.083 L 375.077 3.208 C 375.532 2.727 375.91 2.333 375.917 2.333 C 375.923 2.333 375.937 2.502 375.948 2.708 M 397.521 3.782 C 397.677 3.974 397.683 4.024 397.542 3.939 C 397.427 3.87 397.333 3.893 397.333 3.99 C 397.333 4.087 397.249 4.167 397.146 4.167 C 397.009 4.167 397.008 4.108 397.145 3.943 C 397.247 3.82 397.281 3.67 397.221 3.61 C 397.16 3.549 397.152 3.5 397.202 3.5 C 397.252 3.5 397.395 3.627 397.521 3.782 M 26.828 8.51 C 26.595 8.946 26.53 8.917 26.626 8.419 C 26.669 8.191 26.771 8.045 26.853 8.095 C 26.937 8.147 26.926 8.327 26.828 8.51 M 271.5 8.917 L 272.065 9.5 L 274.645 9.5 C 276.844 9.5 277.27 9.542 277.539 9.785 C 277.811 10.031 277.876 10.037 278.017 9.827 C 278.148 9.632 278.171 9.65 278.132 9.917 C 278.096 10.167 278.175 10.247 278.45 10.238 C 278.652 10.231 278.779 10.287 278.732 10.363 C 278.685 10.438 278.801 10.5 278.99 10.5 C 279.283 10.5 279.333 10.605 279.334 11.208 C 279.336 12.228 279.604 13.05 280.083 13.5 C 280.89 14.257 280.693 15.209 279.458 16.529 L 278.417 17.642 L 277.133 17.699 C 276.002 17.749 275.793 17.81 275.374 18.211 C 274.916 18.649 274.831 18.667 273.116 18.667 L 271.333 18.667 L 271.333 14.43 L 271.333 10.194 L 270.75 9.644 C 270.198 9.123 270.029 8.693 270.278 8.444 C 270.527 8.196 270.965 8.365 271.5 8.917 M 26.333 8.853 C 26.333 8.945 26.265 8.977 26.181 8.925 C 26.097 8.874 25.998 8.922 25.961 9.032 C 25.92 9.157 25.852 9.122 25.782 8.941 C 25.716 8.767 25.737 8.69 25.835 8.751 C 25.926 8.807 26 8.769 26 8.667 C 26 8.564 26.075 8.527 26.167 8.583 C 26.258 8.64 26.333 8.761 26.333 8.853 M 388.32 10.335 C 389.537 11.349 389.703 11.633 389.568 12.477 C 389.445 13.245 389.71 14.17 390.173 14.589 C 390.453 14.842 390.5 15.106 390.5 16.413 L 390.5 17.94 L 391.083 18.405 C 391.781 18.962 391.898 19.668 391.292 19.664 C 390.846 19.661 390.647 19.532 390.399 19.083 C 390.222 18.766 390.021 18.748 386.077 18.713 L 381.94 18.675 L 381.529 19.171 C 380.98 19.834 380.331 19.854 380.34 19.208 C 380.344 18.88 380.495 18.655 380.87 18.417 C 381.158 18.233 381.427 17.979 381.468 17.852 C 381.509 17.724 381.477 17.661 381.397 17.711 C 381.315 17.761 381.25 16.888 381.25 15.75 C 381.25 14.622 381.306 13.733 381.375 13.776 C 381.773 14.022 381.405 13.439 380.917 13.049 C 379.857 12.203 380.261 11.22 381.699 11.146 C 382.268 11.116 382.497 11.03 382.551 10.824 C 382.608 10.604 382.87 10.526 383.733 10.471 C 384.663 10.412 384.915 10.328 385.292 9.95 C 386.072 9.171 387.074 9.298 388.32 10.335 M 389.749 11.307 C 389.646 11.41 388.667 10.497 388.667 10.298 C 388.667 10.221 388.929 10.398 389.251 10.69 C 389.572 10.982 389.796 11.26 389.749 11.307 M 291.393 13.667 C 291.393 14.537 291.422 14.894 291.456 14.458 C 291.49 14.023 291.49 13.31 291.456 12.875 C 291.422 12.44 291.393 12.796 291.393 13.667 M 279.252 17.332 C 278.989 17.606 278.731 17.786 278.679 17.733 C 278.594 17.647 279.475 16.836 279.656 16.834 C 279.696 16.834 279.514 17.058 279.252 17.332 M 77.341 19.593 C 77.519 19.807 77.515 19.843 77.32 19.801 C 77.167 19.768 77.09 19.882 77.103 20.125 C 77.114 20.331 77.058 20.5 76.978 20.5 C 76.811 20.5 76.786 19.984 76.934 19.597 C 77.059 19.272 77.075 19.272 77.341 19.593 M 77.167 20.927 C 77.167 21.069 77.242 21.14 77.333 21.083 C 77.425 21.027 77.5 21.06 77.5 21.157 C 77.5 21.452 77.19 21.354 77 21 C 76.879 20.774 76.877 20.667 76.994 20.667 C 77.089 20.667 77.167 20.784 77.167 20.927 M 77.164 26.875 C 77.162 29.976 77.106 31.498 77 31.333 C 76.712 30.888 76.813 22.167 77.106 22.167 C 77.139 22.167 77.166 24.285 77.164 26.875 M 86.22 34.603 C 86.142 34.805 86.091 34.814 85.988 34.647 C 85.832 34.394 85.958 34.121 86.171 34.253 C 86.252 34.303 86.274 34.46 86.22 34.603 M 83.241 36.12 C 83.301 36.278 83.298 36.354 83.234 36.289 C 83.169 36.225 83.01 36.302 82.879 36.461 C 82.749 36.62 82.697 36.644 82.764 36.515 C 82.858 36.334 82.794 36.304 82.484 36.382 C 82.106 36.478 82.101 36.47 82.4 36.247 C 82.573 36.117 82.78 36.05 82.858 36.099 C 82.936 36.147 83 36.107 83 36.01 C 83 35.744 83.117 35.798 83.241 36.12 M 68.278 36.243 C 68.278 36.562 67.827 36.728 67.597 36.494 C 67.467 36.361 67.486 36.324 67.667 36.363 C 67.804 36.393 67.898 36.323 67.875 36.208 C 67.852 36.094 67.933 36 68.056 36 C 68.178 36 68.278 36.109 68.278 36.243 M 278.099 39.874 C 278.182 39.806 278.194 39.818 278.126 39.901 C 278.058 39.985 278.086 40.153 278.189 40.276 C 278.536 40.695 278.226 40.502 277.821 40.047 C 277.598 39.797 277.536 39.684 277.682 39.795 C 277.828 39.906 278.015 39.942 278.099 39.874 M 280.418 44.501 C 280.863 44.993 280.625 45.071 280.166 44.583 C 279.951 44.354 279.852 44.167 279.945 44.167 C 280.039 44.167 280.251 44.317 280.418 44.501 M 261.566 45.862 C 261.482 45.998 261.542 46.02 261.764 45.935 C 262.008 45.842 262.037 45.86 261.89 46.009 C 261.783 46.116 261.614 46.154 261.515 46.092 C 261.282 45.949 261.279 45.667 261.51 45.667 C 261.607 45.667 261.632 45.754 261.566 45.862 M 57.066 54.5 C 57.066 55.829 57.092 56.373 57.124 55.708 C 57.155 55.044 57.155 53.956 57.124 53.292 C 57.092 52.627 57.066 53.171 57.066 54.5 M 357.566 54.417 C 357.566 55.7 357.592 56.203 357.624 55.534 C 357.656 54.866 357.655 53.816 357.623 53.201 C 357.591 52.586 357.565 53.133 357.566 54.417 M 126.721 53.417 C 126.722 54.058 126.752 54.3 126.788 53.955 C 126.824 53.609 126.824 53.084 126.787 52.788 C 126.75 52.492 126.721 52.775 126.721 53.417 M 257.568 55.167 C 257.568 56.679 257.593 57.298 257.624 56.542 C 257.655 55.785 257.655 54.548 257.624 53.792 C 257.593 53.035 257.568 53.654 257.568 55.167 M 143.545 54.667 C 143.545 55.079 143.578 55.248 143.618 55.042 C 143.657 54.835 143.657 54.498 143.618 54.292 C 143.578 54.085 143.545 54.254 143.545 54.667 M 196.893 56 C 196.893 56.871 196.922 57.227 196.956 56.792 C 196.99 56.356 196.99 55.644 196.956 55.208 C 196.922 54.773 196.893 55.129 196.893 56 M 62.039 58.5 C 62.039 58.821 62.073 58.952 62.115 58.792 C 62.157 58.631 62.157 58.369 62.115 58.208 C 62.073 58.048 62.039 58.179 62.039 58.5" stroke-linecap="round" />
</g>
</g>
</g>
</svg>