<svg xmlns="http://www.w3.org/2000/svg" width="156.313" height="29.597" viewBox="0 0 156.313 29.597"><defs><style>.a{fill:#fff;}</style></defs><g transform="translate(-44.822 -331)"><g transform="translate(44.75 331)"><g transform="translate(0.072)"><g transform="translate(8.735 6.586)"><path class="a" d="M48.955,122.068a15.985,15.985,0,0,0-1.739-.44,12.813,12.813,0,0,0-2.578-.232,10.391,10.391,0,0,0-1.782.167,11.305,11.305,0,0,0-1.321.293V139.42H36.463V118.547a27.72,27.72,0,0,1,3.67-1.027,22.7,22.7,0,0,1,4.882-.484c.335,0,.727.02,1.174.065s.894.1,1.341.167.882.153,1.3.252.755.188,1.005.27Z" transform="translate(-36.463 -116.954)"/><path class="a" d="M50.741,139.236H45.669V117.312h5.072Z" transform="translate(-30.319 -116.77)"/><path class="a" d="M69.143,138.564q-1.466.378-3.813.777a31.17,31.17,0,0,1-5.157.4,11.36,11.36,0,0,1-4.422-.754,7.091,7.091,0,0,1-2.851-2.1,8.245,8.245,0,0,1-1.529-3.206,17.052,17.052,0,0,1-.46-4.087V117.312h5.072V128.8q0,3.519,1.027,5.03a4.014,4.014,0,0,0,3.583,1.509q.92,0,1.949-.083a10.305,10.305,0,0,0,1.531-.21V117.312h5.07Z" transform="translate(-26.822 -116.77)"/><path class="a" d="M70.453,135.806a6.688,6.688,0,0,0,2.933-.48,1.719,1.719,0,0,0,.924-1.659,2.143,2.143,0,0,0-.987-1.8,14.589,14.589,0,0,0-3.246-1.552,25.626,25.626,0,0,1-2.538-1.067,8.719,8.719,0,0,1-1.991-1.321,5.4,5.4,0,0,1-1.321-1.826,6.375,6.375,0,0,1-.482-2.619,5.712,5.712,0,0,1,2.221-4.755A9.548,9.548,0,0,1,72,116.987a18.615,18.615,0,0,1,3.688.355,17.872,17.872,0,0,1,2.641.692l-.924,4.107a12.585,12.585,0,0,0-2.136-.692,13,13,0,0,0-3.018-.313,5.226,5.226,0,0,0-2.516.525,1.715,1.715,0,0,0-.964,1.612,2.319,2.319,0,0,0,.188.962,2.081,2.081,0,0,0,.649.779,6.892,6.892,0,0,0,1.217.712,19.008,19.008,0,0,0,1.844.734,27.946,27.946,0,0,1,3.06,1.321,8.281,8.281,0,0,1,2.076,1.467A5.027,5.027,0,0,1,79,131.113a7.428,7.428,0,0,1,.377,2.514,5.428,5.428,0,0,1-2.324,4.759A11.606,11.606,0,0,1,70.409,140a18.1,18.1,0,0,1-4.654-.484,23.383,23.383,0,0,1-2.473-.775l.88-4.232a22.824,22.824,0,0,0,2.7.879A13.919,13.919,0,0,0,70.453,135.806Z" transform="translate(-18.565 -116.987)"/></g><g transform="translate(96.09 6.582)"><path class="a" d="M93.928,139.234H88.854V117.31h5.074Z" transform="translate(-88.854 -116.768)"/><path class="a" d="M100.217,135.8a6.659,6.659,0,0,0,2.933-.482,1.712,1.712,0,0,0,.924-1.657,2.145,2.145,0,0,0-.985-1.8,14.612,14.612,0,0,0-3.248-1.552,25.581,25.581,0,0,1-2.536-1.067,8.732,8.732,0,0,1-1.992-1.321,5.426,5.426,0,0,1-1.321-1.826,6.376,6.376,0,0,1-.48-2.619,5.712,5.712,0,0,1,2.221-4.755,9.546,9.546,0,0,1,6.036-1.739,18.633,18.633,0,0,1,3.69.355,17.894,17.894,0,0,1,2.639.692l-.922,4.107a12.61,12.61,0,0,0-2.138-.692,12.992,12.992,0,0,0-3.018-.313,5.226,5.226,0,0,0-2.516.525,1.718,1.718,0,0,0-.964,1.612,2.319,2.319,0,0,0,.188.962,2.1,2.1,0,0,0,.65.779,6.812,6.812,0,0,0,1.215.712,19.455,19.455,0,0,0,1.844.734,27.8,27.8,0,0,1,3.06,1.321,8.252,8.252,0,0,1,2.076,1.467,5.006,5.006,0,0,1,1.194,1.866,7.428,7.428,0,0,1,.377,2.514,5.424,5.424,0,0,1-2.324,4.759A11.606,11.606,0,0,1,100.174,140a18.089,18.089,0,0,1-4.652-.484,23.122,23.122,0,0,1-2.473-.775l.879-4.233a22.632,22.632,0,0,0,2.706.88A13.9,13.9,0,0,0,100.217,135.8Z" transform="translate(-86.054 -116.985)"/></g><rect class="a" width="5.28" height="29.05" transform="translate(0 0.002)"/><path class="a" d="M108.808,124.729V113.038h-5.073V129.8Z" transform="translate(17.167 -113.037)"/><path class="a" d="M108.808,123.934v-.026l-5.073,5.074v5.849h5.073Z" transform="translate(17.167 -105.783)"/><path class="a" d="M113.227,128.167l10.581-10.581-.023-.023h-6.405l-10.6,10.6,10.9,10.9h5.819l.626-.006Z" transform="translate(19.196 -110.018)"/><path class="a" d="M121.023,128.167,131.6,117.585l-.023-.023h-6.405l-10.6,10.6,10.9,10.9h5.819l.626-.006Z" transform="translate(24.399 -110.018)"/><path class="a" d="M95.469,138.774q-.965-1.7-2.011-3.311t-2.054-3q-1.008-1.386-1.8-2.346,5.825-2.1,5.826-8.007,0-4.737-3.331-7.045c-2.223-1.534-4.517-2.061-9.829-2.031-2.436.015-7.8,0-7.8,0v29.069h5.281V131.126H83.1c.278,0,.615-.013,1.005-.043q.8,1.008,1.719,2.286t1.866,2.724q.943,1.443,1.866,2.975t1.719,3.04h5.909Q96.432,140.477,95.469,138.774Zm-6.078-14.358a3.677,3.677,0,0,1-1.489,1.471,7.184,7.184,0,0,1-2.451.754,24.257,24.257,0,0,1-3.395.208H79.751v-9.332s1.984-.182,3.1-.182a16.411,16.411,0,0,1,2.851.228,6.814,6.814,0,0,1,2.243.777,3.738,3.738,0,0,1,1.446,1.467,4.67,4.67,0,0,1,.5,2.263A4.861,4.861,0,0,1,89.391,124.417Z" transform="translate(-2.364 -113.037)"/></g></g></g></svg>